<?xml version="1.0" encoding="UTF-8" standalone="no"?>
<!-- Created with Inkscape (http://www.inkscape.org/) -->

<svg
   width="181.04495mm"
   height="158.80043mm"
   viewBox="0 0 181.04495 158.80043"
   version="1.1"
   id="svg1"
   inkscape:version="1.3.2 (091e20e, 2023-11-25)"
   sodipodi:docname="microwave.svg"
   xmlns:inkscape="http://www.inkscape.org/namespaces/inkscape"
   xmlns:sodipodi="http://sodipodi.sourceforge.net/DTD/sodipodi-0.dtd"
   xmlns:xlink="http://www.w3.org/1999/xlink"
   xmlns="http://www.w3.org/2000/svg"
   xmlns:svg="http://www.w3.org/2000/svg">
  <sodipodi:namedview
     id="namedview1"
     pagecolor="#ffffff"
     bordercolor="#000000"
     borderopacity="0.25"
     inkscape:showpageshadow="2"
     inkscape:pageopacity="0.0"
     inkscape:pagecheckerboard="0"
     inkscape:deskcolor="#d1d1d1"
     inkscape:document-units="mm"
     inkscape:zoom="1.1893044"
     inkscape:cx="369.54374"
     inkscape:cy="52.972141"
     inkscape:window-width="3008"
     inkscape:window-height="1639"
     inkscape:window-x="1710"
     inkscape:window-y="25"
     inkscape:window-maximized="1"
     inkscape:current-layer="layer1"
     showgrid="false" />
  <defs
     id="defs1">
    <linearGradient
       id="swatch4"
       inkscape:swatch="solid"
       inkscape:label="structural (green)">
      <stop
         style="stop-color:#00a816;stop-opacity:1;"
         offset="0"
         id="stop4" />
    </linearGradient>
    <linearGradient
       id="swatch3"
       inkscape:swatch="solid">
      <stop
         style="stop-color:#000000;stop-opacity:1;"
         offset="0"
         id="stop3" />
    </linearGradient>
    <linearGradient
       id="swatch2"
       inkscape:swatch="solid"
       inkscape:label="non-routine (red)">
      <stop
         style="stop-color:#d90000;stop-opacity:1;"
         offset="0"
         id="stop2" />
    </linearGradient>
    <linearGradient
       id="swatch1"
       inkscape:swatch="solid"
       inkscape:label="functional (blue)">
      <stop
         style="stop-color:#0980e5;stop-opacity:1;"
         offset="0"
         id="stop1" />
    </linearGradient>
    <linearGradient
       inkscape:collect="always"
       xlink:href="#swatch1"
       id="linearGradient2"
       x1="36.206959"
       y1="144.48669"
       x2="65.792404"
       y2="144.48669"
       gradientUnits="userSpaceOnUse" />
    <linearGradient
       inkscape:collect="always"
       xlink:href="#swatch1"
       id="linearGradient3"
       x1="170.50175"
       y1="137.37389"
       x2="188.69942"
       y2="137.37389"
       gradientUnits="userSpaceOnUse" />
    <linearGradient
       inkscape:collect="always"
       xlink:href="#swatch4"
       id="linearGradient4"
       x1="88.648328"
       y1="226.09538"
       x2="111.40866"
       y2="226.09538"
       gradientUnits="userSpaceOnUse" />
    <linearGradient
       inkscape:collect="always"
       xlink:href="#swatch2"
       id="linearGradient10"
       gradientUnits="userSpaceOnUse"
       gradientTransform="translate(53.526351,34.344102)"
       x1="36.206959"
       y1="144.48669"
       x2="65.792404"
       y2="144.48669" />
    <linearGradient
       inkscape:collect="always"
       xlink:href="#swatch1"
       id="linearGradient11"
       gradientUnits="userSpaceOnUse"
       gradientTransform="translate(1.5875)"
       x1="7.654463"
       y1="148.07135"
       x2="31.184116"
       y2="148.07135" />
  </defs>
  <g
     inkscape:label="Layer 1"
     inkscape:groupmode="layer"
     id="layer1"
     transform="translate(-7.654463,-134.47485)">
    <path
       style="fill:#000000;stroke-width:0.264583"
       id="path3"
       d="m 20.510273,292.89605 c 3.770271,0.51983 7.595766,0.38965 11.38887,0.27813 3.72755,-0.2304 7.453698,-0.54377 11.148496,-1.09321 3.651168,-0.64606 7.110341,-1.95776 10.490332,-3.44096 2.267516,-0.97726 4.407876,-2.20839 6.505771,-3.5025 1.897994,-1.16467 3.748505,-2.40633 5.535626,-3.73478 0.225771,-0.16483 0.44854,-0.33385 0.677314,-0.4945 0.661083,-0.46419 0.668335,-0.41296 1.284449,-0.9216 0.612587,-0.50572 1.133338,-1.07632 1.648164,-1.67775 1.077346,-1.39578 1.910302,-2.96553 2.78217,-4.49418 0.930992,-1.65696 1.471544,-3.4852 1.884244,-5.32935 0.378026,-2.12926 0.68313,-4.27457 0.9667,-6.41906 0.380513,-2.53651 0.461222,-5.10335 0.552331,-7.66277 0.0547,-2.43458 0.0763,-4.87003 0.07431,-7.3052 -0.05038,-2.54626 -0.590913,-5.04565 -1.209606,-7.50514 -0.13103,-0.43627 -0.251087,-0.87597 -0.393087,-1.30879 -0.19972,-0.60873 -0.733734,-2.02347 -0.948012,-2.61508 -0.465408,-1.28499 -0.890577,-2.57699 -1.291045,-3.88343 -0.811581,-2.66705 -1.621219,-5.33482 -2.409947,-8.00874 -0.764323,-2.51006 -1.42898,-5.04883 -2.227495,-7.54832 -0.46713,-1.47061 -1.083212,-2.89674 -1.897811,-4.21013 -0.502323,-0.8099 -0.774023,-1.1254 -1.352193,-1.87888 -1.555949,-1.83139 -3.182988,-3.59706 -4.70163,-5.46051 -1.013391,-1.2997 -1.977885,-2.64261 -2.747193,-4.1034 -0.490709,-0.93177 -0.649197,-1.33336 -1.077751,-2.29941 -1.085268,-2.75547 -2.135502,-5.52411 -3.192513,-8.29049 -0.992298,-2.3768 -1.822465,-4.8363 -3.03123,-7.11787 -0.209069,-0.39462 -0.443688,-0.77517 -0.665533,-1.16275 -1.186849,-1.94856 -2.653043,-3.70042 -4.300516,-5.27197 -1.543402,-1.38669 -3.264549,-2.5515 -4.885436,-3.84173 -1.111391,-0.91518 -2.172187,-1.89417 -3.090222,-3.00491 -0.620472,-0.84816 -1.149554,-1.75884 -1.712712,-2.64547 -0.554384,-0.90106 -1.067758,-1.8248 -1.664126,-2.69928 -0.593799,-0.87255 -1.2105,-1.72739 -1.912241,-2.5164 -0.724366,-0.78937 -1.393656,-1.62842 -2.004762,-2.50801 -0.636275,-0.99891 -1.296947,-1.98154 -1.952482,-2.96774 -0.245104,-0.30221 -0.470403,-0.64784 -0.850725,-0.8094 -0.188334,-0.08 -0.405141,-0.0578 -0.607711,-0.0867 0,0 0.06796,0.0422 0.06796,0.0422 v 0 c -0.365768,-0.36197 -0.654881,-0.61584 -0.308171,0.11048 0.659619,0.98999 1.325798,1.97472 1.964328,2.97871 0.643295,0.89307 1.349364,1.74173 2.081279,2.56336 0.7093,0.78059 1.330213,1.63086 1.928336,2.49888 0.604099,0.86735 1.112438,1.79174 1.664234,2.69241 0.570013,0.89274 1.119579,1.79964 1.721475,2.67103 0.910132,1.13936 1.994344,2.12277 3.113116,3.05405 1.622687,1.29692 3.352993,2.45759 4.910206,3.83661 1.661901,1.55698 3.134556,3.30787 4.346602,5.23979 0.224343,0.38479 0.461827,0.76221 0.673023,1.15436 1.225122,2.27482 2.074228,4.72996 3.05567,7.11254 1.055513,2.75782 2.076077,5.52901 3.150077,8.2798 0.426233,0.97559 0.578715,1.369 1.066686,2.31109 0.76523,1.47736 1.737296,2.82822 2.757061,4.13895 1.50435,1.87139 3.114726,3.64685 4.694513,5.45396 0.544885,0.69188 0.915879,1.12916 1.39382,1.87253 0.837935,1.30329 1.47149,2.7281 1.95191,4.19807 0.810998,2.5033 1.498354,5.04401 2.264672,7.56116 0.770255,2.67535 1.598115,5.33363 2.390852,8.00235 0.406498,1.31035 0.835014,2.60773 1.302379,3.89785 0.154171,0.42557 0.79973,2.1574 0.948317,2.60521 0.142939,0.43078 0.264235,0.86844 0.396352,1.30265 0.624146,2.44306 1.145423,4.92954 1.204677,7.45994 -0.0026,2.43951 0.02043,4.87933 -0.03856,7.31845 -0.05852,2.55756 -0.164494,5.11629 -0.544021,7.6501 -0.270904,2.14268 -0.600045,4.27987 -0.959257,6.40897 -0.375473,1.8465 -0.934783,3.64895 -1.773272,5.34207 -0.819907,1.54919 -1.699583,3.07544 -2.727388,4.49726 -0.363802,0.47087 -0.552583,0.7412 -0.969598,1.17334 -0.726942,0.75332 -1.575599,1.38208 -2.380366,2.0465 -1.739212,1.35716 -3.538471,2.63615 -5.412311,3.80185 -2.079543,1.28482 -4.174816,2.55667 -6.414844,3.54777 -3.343206,1.5067 -6.769703,2.83441 -10.397678,3.47975 -0.588394,0.10337 -1.17453,0.22053 -1.765184,0.31012 -3.02452,0.45863 -6.118,0.6495 -9.162092,0.93144 -3.706788,0.17745 -7.43388,0.28982 -11.132177,-0.0974 z" />
    <path
       style="fill:#000000;stroke-width:0.264583"
       id="path4"
       d="m 183.19774,286.30972 c -2.35973,0.12232 -4.71922,0.2362 -7.07455,0.429 -1.84039,0.17407 -3.66597,0.47786 -5.50474,0.66439 -0.82554,0.0837 -1.73022,0.14169 -2.55782,0.20042 -2.31917,0.17384 -4.64622,0.17138 -6.96891,0.0904 -2.54549,-0.12274 -4.96957,-0.90127 -7.31791,-1.83607 -1.24476,-0.56809 -2.46636,-1.19301 -3.6386,-1.89992 -0.0105,-0.006 0.0411,-0.013 0.031,-0.0198 -4.29936,-2.93708 2.25488,1.64304 -2.03142,-1.36548 -1.84099,-1.2948 -3.53602,-2.77826 -5.14744,-4.34552 -1.43012,-1.37438 -2.54255,-2.99186 -3.47793,-4.72964 -0.5763,-1.19745 -1.13252,-2.4143 -1.52206,-3.68774 -0.20834,-0.68106 -0.26674,-1.00853 -0.42099,-1.70325 -0.42088,-1.69561 -0.56662,-3.43165 -0.646,-5.17101 -0.0494,-2.38353 -0.0355,-4.76782 -0.17661,-7.14804 -0.24571,-2.68484 -0.56484,-5.37623 -1.21601,-7.99741 -0.12128,-0.48821 -0.26505,-0.97055 -0.39758,-1.45582 -0.67732,-2.40419 -1.60514,-4.72155 -2.48352,-7.0554 -0.58734,-1.4741 -1.02393,-2.99481 -1.35829,-4.54393 -0.24018,-1.25971 -0.29705,-2.54329 -0.27472,-3.8225 0.0883,-1.76628 0.77072,-3.42483 1.29978,-5.09245 0.73997,-2.29894 1.41658,-4.62149 1.9234,-6.98345 0.57636,-2.65396 -0.24497,-4.72745 -1.26809,-7.12428 -0.8268,-1.76579 -1.36372,-3.50076 -1.63218,-5.42633 -0.0135,-0.50265 -0.0585,-0.94994 0.0569,-1.44679 0.32965,-1.41888 1.39043,-2.59453 2.27973,-3.68753 2.13675,-2.36479 4.37849,-4.62947 6.46021,-7.04447 1.69904,-1.92675 2.90368,-4.19955 4.24268,-6.3733 1.52787,-2.35386 3.04083,-4.72074 4.72818,-6.96446 1.57824,-2.02541 3.39908,-3.84104 5.26524,-5.59801 1.53776,-1.46644 3.22502,-2.76022 4.82391,-4.15597 1.3517,-1.15639 2.64118,-2.38129 3.91482,-3.62217 1.14698,-1.1658 2.2614,-2.36298 3.39421,-3.54245 2.03658,-1.88651 3.707,-4.10311 5.36467,-6.31692 1.55895,-2.05907 3.00769,-4.19946 4.27763,-6.44856 0.31613,-0.52723 0.55521,-1.093 0.81843,-1.64643 0.15227,-0.32014 0.33468,-0.58292 0.41289,-0.92846 -0.39512,-0.46532 -0.14629,-0.35661 -0.735,-0.35126 0,0 0.0704,0.0381 0.0704,0.0381 v 0 c -0.42041,-0.60637 -0.13477,-0.4199 -0.85437,-0.56328 -0.63667,0.60122 -0.82133,1.8034 -1.32732,2.5234 -1.21411,2.26834 -2.61457,4.43137 -4.16806,6.48293 -1.66548,2.20915 -3.38662,4.38101 -5.44613,6.24217 -1.13379,1.17456 -2.23805,2.37699 -3.3796,3.54403 -1.27583,1.23346 -2.56298,2.45616 -3.90659,3.61617 -1.59458,1.4009 -3.26022,2.72029 -4.8099,4.17299 -1.86271,1.77271 -3.66436,3.61566 -5.25867,5.63745 -1.69168,2.24805 -3.20855,4.61769 -4.74108,6.97567 -1.34609,2.15818 -2.57114,4.40445 -4.22352,6.35324 -2.0522,2.44106 -4.26953,4.72896 -6.45323,7.05137 -0.93077,1.10181 -2.03513,2.29319 -2.4108,3.73454 -0.13327,0.51132 -0.0895,0.96858 -0.0809,1.48836 0.0926,0.67101 0.11661,0.94685 0.26791,1.61641 0.30354,1.34328 0.82905,2.61897 1.38487,3.87451 1.01558,2.36538 1.86546,4.38573 1.29864,7.01417 -0.47291,2.3644 -1.15199,4.68008 -1.91201,6.96756 -0.53948,1.67868 -1.25316,3.34211 -1.36185,5.12036 -0.0343,1.29157 0.037,2.58791 0.25618,3.86275 0.33638,1.56666 0.79367,3.10182 1.39025,4.5904 0.90118,2.34299 1.87189,4.66226 2.57103,7.07773 0.34288,1.23239 0.48171,1.66738 0.7582,2.91756 0.47582,2.15146 0.74674,4.33835 0.93028,6.53254 0.1529,2.39202 0.19755,4.78388 0.24562,7.17955 0.0751,1.75272 0.20211,3.50271 0.65353,5.20678 0.14612,0.62699 0.24794,1.113 0.437,1.72882 0.39482,1.28611 0.96959,2.50878 1.54008,3.72369 0.92956,1.76744 2.05653,3.40633 3.50725,4.79301 1.61946,1.58229 3.32604,3.0793 5.17995,4.38385 2.52689,1.77612 5.2095,3.34971 8.02044,4.63238 2.3191,0.89225 4.70709,1.63515 7.2138,1.7031 2.27811,0.0442 4.55138,-0.0285 6.82344,-0.21016 2.63877,-0.25868 5.25273,-0.71665 7.89068,-0.98695 2.38611,-0.17857 4.77573,-0.29993 7.16788,-0.36057 z" />
    <path
       style="fill:#000000;stroke-width:0.264583"
       id="path5"
       d="m 45.686934,148.19281 c 0.810925,1.08154 1.485464,2.2598 2.099744,3.46185 0.472247,0.86391 0.695421,1.80558 0.923806,2.75271 0.273905,1.1969 0.419965,2.41532 0.710986,3.60801 0.198136,1.08469 0.657995,2.06664 1.167641,3.03307 0.538887,1.01405 1.349536,1.8348 2.204148,2.58589 0.583845,0.48023 1.205309,0.90391 1.778918,1.39693 0.925481,0.92499 1.879965,1.81858 2.850502,2.69612 1.150263,1.04847 2.272371,2.12386 3.494328,3.0894 1.357905,1.02043 2.827539,1.87361 4.255831,2.78804 1.549889,1.03683 3.187157,1.93073 4.842449,2.78572 2.235745,1.17023 4.555032,2.16556 6.853933,3.20232 0.983483,0.47067 1.968458,0.94598 2.902075,1.51166 0.06017,0.0365 0.106627,0.0922 0.164205,0.13259 1.550699,1.08858 -0.06657,-0.0967 1.450388,1.02977 1.530876,1.1183 2.720983,2.58357 3.861303,4.07811 0.935352,1.3064 1.857163,2.62218 2.676154,4.00501 0.465728,0.7236 0.843468,1.49552 1.200629,2.27659 0.505235,1.17252 0.909465,2.38525 1.362189,3.57884 0.38228,1.03514 0.896911,2.01304 1.389716,2.99808 0.264729,0.61677 0.593159,1.20166 0.894971,1.80013 0.163179,0.35055 0.290084,0.71663 0.445067,1.07035 0.108841,0.25221 0.268538,0.48244 0.447489,0.69013 0.514594,1.13094 1.941367,0.46741 2.709709,0.23409 1.967709,-0.50996 3.885825,-1.18616 5.802845,-1.85683 1.48571,-0.58413 3.00441,-1.10638 4.43901,-1.81324 0.55665,-0.27427 1.39808,-0.75915 1.93432,-1.06165 2.28878,-1.22302 4.58667,-2.42507 6.83673,-3.71876 2.71521,-1.55638 5.23817,-3.41451 7.80629,-5.19567 2.35767,-1.67091 4.64855,-3.43214 6.9834,-5.13438 1.97486,-1.34827 3.78626,-2.89295 5.51671,-4.5371 1.66476,-1.5783 3.35068,-3.13438 4.94915,-4.78046 1.1828,-1.21856 1.81103,-2.79813 2.4429,-4.34271 0.64824,-1.63179 1.5609,-3.07997 2.58283,-4.49666 1.17334,-1.43384 2.40023,-2.81986 3.49944,-4.31278 1.16694,-1.64931 2.09126,-3.44885 3.16836,-5.15562 0.87817,-1.31251 1.80814,-2.59984 2.93269,-3.71504 0.6023,-0.59729 1.3049,-1.18778 1.94521,-1.74293 2.04952,-1.66778 4.17227,-3.24128 6.28621,-4.8255 1.5037,-1.17175 2.97786,-2.37748 4.511,-3.51099 0.19741,-0.21951 1.50277,-0.97045 1.5482,-1.24711 0.0155,-0.0942 -0.072,-0.1769 -0.10803,-0.26535 0,0 -0.80646,-0.51078 -0.80646,-0.51078 v 0 c -0.13258,-0.0169 -0.26553,-0.0704 -0.39775,-0.0508 -0.39158,0.058 -1.26517,1.00522 -1.63217,1.19106 -1.51349,1.15369 -2.9961,2.34253 -4.48126,3.53247 -2.06423,1.64533 -4.21568,3.17828 -6.25452,4.85617 -0.59836,0.52119 -1.39238,1.19757 -1.95879,1.75262 -1.14013,1.11724 -2.07563,2.41098 -2.9679,3.72904 -1.0957,1.69186 -2.04063,3.47307 -3.18199,5.13573 -1.09138,1.4972 -2.30409,2.89631 -3.48532,4.3223 -1.02711,1.41693 -1.95342,2.89453 -2.61797,4.52115 -0.61916,1.53062 -1.25795,3.06802 -2.37307,4.31618 -1.51927,1.70725 -3.21906,3.24038 -4.87038,4.81733 -1.7229,1.6289 -3.51635,3.18171 -5.45175,4.55637 -2.30673,1.71466 -4.5743,3.47902 -6.87535,5.20045 -2.51512,1.84023 -5.06278,3.64389 -7.7601,5.2106 -2.24821,1.29186 -4.53131,2.51726 -6.82613,3.7241 -2.0128,1.12245 -4.06592,2.18372 -6.25296,2.93001 -1.925898,0.66961 -3.860939,1.31861 -5.837003,1.82649 -0.502201,0.14052 -0.702985,0.20964 -1.19271,0.30312 -0.112287,0.0214 -0.413414,-0.0389 -0.339519,0.0483 0.527161,0.62222 1.214337,0.74686 0.614995,0.41256 -0.223081,-0.18659 -0.411938,-0.42543 -0.530701,-0.6914 -0.171868,-0.34904 -0.280384,-0.72979 -0.456258,-1.07879 -0.309806,-0.59935 -0.64634,-1.18541 -0.911529,-1.80695 -0.498102,-0.99177 -1.0438,-1.96383 -1.429288,-3.00756 -0.453315,-1.1874 -0.846537,-2.39655 -1.332981,-3.57057 -0.35279,-0.79017 -0.731237,-1.56896 -1.211527,-2.29149 -0.84632,-1.38798 -1.786758,-2.71314 -2.729421,-4.03712 -1.136144,-1.497 -2.317509,-2.971 -3.845223,-4.09312 -1.77886,-1.33141 -3.704958,-2.44748 -5.727134,-3.36918 -2.308432,-1.03699 -4.636942,-2.03422 -6.873364,-3.22282 -1.22478,-0.63759 -2.444221,-1.27738 -3.582385,-2.06391 -1.438111,-0.91633 -2.915285,-1.77399 -4.286123,-2.79233 -1.236495,-0.96278 -2.371637,-2.0358 -3.524093,-3.0962 -0.963467,-0.8674 -1.911768,-1.75015 -2.812672,-2.6829 -0.593259,-0.50135 -1.22823,-0.93767 -1.836772,-1.41964 -0.866561,-0.74582 -1.693918,-1.56289 -2.244405,-2.57698 -0.518041,-0.97584 -0.97265,-1.97673 -1.244057,-3.05307 -0.321257,-1.19139 -0.462473,-2.41522 -0.734079,-3.61838 -0.240832,-0.96862 -0.487765,-1.93351 -1.001281,-2.80181 -0.655212,-1.21266 -1.365224,-2.39581 -2.184636,-3.50609 z" />
    <path
       style="fill:#000000;stroke-width:0.264583"
       id="path6"
       d="m 29.681395,151.84818 c 1.390017,0.8309 2.604285,1.88101 3.744724,3.02154 1.082051,1.06079 1.962896,2.30118 2.797305,3.5598 0.685398,0.99559 1.103434,2.12863 1.534348,3.24789 0.245414,0.72916 0.479798,1.46078 0.782846,2.16875 0.223303,0.51941 0.449675,1.0395 0.704832,1.54418 0.193857,0.36777 0.446291,0.70352 0.725834,1.01017 0.336761,0.35222 0.68734,0.68579 1.078134,0.97709 0.871146,0.61169 1.805406,1.12989 2.732247,1.65078 0.516987,0.28796 1.052001,0.53918 1.582147,0.80074 0.487363,0.21738 0.961226,0.46254 1.448753,0.67969 -0.230744,-0.1305 -0.460817,-0.2622 -0.692232,-0.39152 -0.05135,-0.0287 0.100771,0.0607 0.152005,0.0896 0.336061,0.18957 0.668465,0.38594 1.009841,0.56577 0.140086,0.0738 0.293272,0.11689 0.434136,0.1983 -0.248203,-0.14062 -0.496403,-0.28125 -0.744604,-0.42187 0.0043,0.009 0.02246,0.0275 0.01275,0.0264 -0.04774,-0.005 -0.183369,-0.0573 -0.138289,-0.0407 0.434842,0.16051 1.572095,0.85326 1.307853,0.47244 -0.358833,-0.51716 -1.090128,-0.62964 -1.635273,-0.94432 -0.117464,-0.0678 -0.235034,-0.13543 -0.352552,-0.20314 0.398794,0.21951 0.784149,0.46543 1.19638,0.65853 0.124399,0.0583 -0.222353,-0.16186 -0.326726,-0.25117 -0.476853,-0.40806 -0.793427,-0.88846 -1.083657,-1.4378 -0.380965,-0.82255 -0.540565,-1.72534 -0.673922,-2.61593 -0.181849,-1.35744 -0.09642,-2.72696 0.05674,-4.08185 0.176813,-1.48162 0.373795,-2.96818 0.392488,-4.46188 0.0039,-1.0419 -0.325837,-2.02477 -0.637178,-3.00428 -0.195016,-0.53688 -0.394798,-1.07252 -0.534349,-1.62706 -0.06233,-0.32007 -0.267224,-0.43772 -0.522187,-0.60196 -0.271775,-0.2286 0.475448,0.0195 -0.869876,-0.13666 0,0 0.06779,0.0425 0.06779,0.0425 v 0 c -0.147309,-0.13742 -0.294619,-0.27484 -0.441926,-0.41227 0.0028,-10e-4 0.01024,-5.3e-4 0.0084,-0.004 -0.341519,-0.0905 -0.08658,0.0592 -0.03305,0.25242 0.128275,0.56763 0.350854,1.10973 0.553969,1.6534 0.315891,0.96585 0.67451,1.92987 0.688472,2.96039 -0.0019,1.49312 -0.171167,2.9791 -0.352988,4.45965 -0.152557,1.36235 -0.267677,2.74266 -0.107977,4.11011 0.12182,0.90956 0.28629,1.82849 0.651828,2.67521 0.809262,1.67416 1.599819,1.9327 3.314578,2.90906 0.979794,0.50653 -1.029936,-0.52685 -0.859094,-0.51652 0.60194,0.0364 1.113406,0.4637 1.67278,0.68899 0.08154,0.0328 -0.160295,-0.0724 -0.238995,-0.11152 -0.399106,-0.19865 -0.731764,-0.52518 -1.157796,-0.6695 -0.04065,-0.0208 -0.08061,-0.0431 -0.121957,-0.0625 -0.04944,-0.0232 -0.09979,-0.0444 -0.150288,-0.0652 -0.68997,-0.28422 1.048057,0.64378 0.394276,0.26665 -0.339815,-0.19601 -0.68018,-0.39107 -1.020273,-0.58661 -0.48733,-0.21867 -0.962379,-0.46325 -1.448747,-0.68408 -0.526084,-0.25501 -1.051226,-0.51115 -1.565153,-0.79037 0.177215,0.10781 0.356915,0.21163 0.531643,0.32343 0.105923,0.0678 -0.21789,-0.12565 -0.325133,-0.19131 -0.433647,-0.26549 -0.873152,-0.52507 -1.288259,-0.81854 -0.398322,-0.28398 -0.755118,-0.61227 -1.094624,-0.96446 -0.286443,-0.29868 -0.537659,-0.63176 -0.74436,-0.99066 -0.276079,-0.50917 -0.52297,-1.03462 -0.75964,-1.56301 -0.342061,-0.72904 -0.602448,-1.48985 -0.920863,-2.229 -0.482235,-1.13149 -0.909294,-2.29396 -1.628643,-3.30523 -0.857745,-1.27523 -1.779238,-2.51992 -2.873095,-3.60441 -1.154879,-1.14741 -2.374545,-2.21206 -3.780726,-3.04674 z" />
    <text
       xml:space="preserve"
       style="font-size:7.76111px;fill:url(#linearGradient11);stroke-width:0.264583"
       x="8.4840422"
       y="150.83397"
       id="text6"><tspan
         sodipodi:role="line"
         id="tspan6"
         style="font-size:7.76111px;fill:url(#linearGradient11);stroke-width:0.264583"
         x="8.4840422"
         y="150.83397">Potato</tspan></text>
    <text
       xml:space="preserve"
       style="font-size:7.76111px;fill:url(#linearGradient2);stroke-width:0.264583"
       x="35.449039"
       y="146.5274"
       id="text6-1"><tspan
         sodipodi:role="line"
         id="tspan6-7"
         style="font-size:7.76111px;stroke-width:0.264583;fill:url(#linearGradient2)"
         x="35.449039"
         y="146.5274">Popcorn</tspan></text>
    <text
       xml:space="preserve"
       style="font-size:7.76111px;fill:url(#linearGradient10);stroke-width:0.264583"
       x="88.975395"
       y="180.87151"
       id="text6-1-9"><tspan
         sodipodi:role="line"
         id="tspan6-7-9"
         style="font-size:7.76111px;fill:url(#linearGradient10);stroke-width:0.264583"
         x="88.975395"
         y="180.87151">Brownie</tspan></text>
    <text
       xml:space="preserve"
       style="font-size:7.7611px;fill:url(#linearGradient3);stroke-width:0.264583"
       x="169.74384"
       y="140.15546"
       id="text7"><tspan
         sodipodi:role="line"
         id="tspan7"
         style="stroke-width:0.264583;fill:url(#linearGradient3)"
         x="169.74384"
         y="140.15546">Pizza</tspan></text>
    <text
       xml:space="preserve"
       style="font-size:7.7611px;fill:url(#linearGradient4);stroke-width:0.264583"
       x="99.634377"
       y="224.02626"
       id="text8"><tspan
         sodipodi:role="line"
         id="tspan8"
         style="text-align:center;writing-mode:lr-tb;text-anchor:middle;stroke-width:0.264583;fill:url(#linearGradient4)"
         x="99.634377"
         y="224.02626">Time</tspan><tspan
         sodipodi:role="line"
         style="text-align:center;writing-mode:lr-tb;text-anchor:middle;stroke-width:0.264583;fill:url(#linearGradient4)"
         x="99.634377"
         y="233.72763"
         id="tspan10">Power</tspan></text>
  </g>
</svg>
