<?xml version="1.0" encoding="UTF-8" standalone="no"?>
<!-- Created with Inkscape (http://www.inkscape.org/) -->

<svg
   width="265.40253mm"
   height="181.28288mm"
   viewBox="0 0 265.40253 181.28288"
   version="1.1"
   id="svg1"
   inkscape:version="1.3.2 (091e20e, 2023-11-25)"
   sodipodi:docname="tree.svg"
   xmlns:inkscape="http://www.inkscape.org/namespaces/inkscape"
   xmlns:sodipodi="http://sodipodi.sourceforge.net/DTD/sodipodi-0.dtd"
   xmlns:xlink="http://www.w3.org/1999/xlink"
   xmlns="http://www.w3.org/2000/svg"
   xmlns:svg="http://www.w3.org/2000/svg">
  <sodipodi:namedview
     id="namedview1"
     pagecolor="#ffffff"
     bordercolor="#000000"
     borderopacity="0.25"
     inkscape:showpageshadow="2"
     inkscape:pageopacity="0.0"
     inkscape:pagecheckerboard="0"
     inkscape:deskcolor="#d1d1d1"
     inkscape:document-units="mm"
     inkscape:zoom="1.1893044"
     inkscape:cx="786.59425"
     inkscape:cy="143.36111"
     inkscape:window-width="3008"
     inkscape:window-height="1554"
     inkscape:window-x="1710"
     inkscape:window-y="25"
     inkscape:window-maximized="1"
     inkscape:current-layer="layer1" />
  <defs
     id="defs1">
    <linearGradient
       id="swatch135"
       inkscape:swatch="solid"
       inkscape:label="non-routine (red)">
      <stop
         style="stop-color:#d90000;stop-opacity:1;"
         offset="0"
         id="stop135" />
    </linearGradient>
    <linearGradient
       id="swatch134"
       inkscape:swatch="solid"
       inkscape:label="functional (blue)">
      <stop
         style="stop-color:#0980e5;stop-opacity:1;"
         offset="0"
         id="stop134" />
    </linearGradient>
    <linearGradient
       id="swatch133"
       inkscape:swatch="solid"
       inkscape:label="structural (green)">
      <stop
         style="stop-color:#00a816;stop-opacity:1;"
         offset="0"
         id="stop133" />
    </linearGradient>
    <marker
       style="overflow:visible"
       id="marker122"
       refX="0"
       refY="0"
       orient="auto-start-reverse"
       inkscape:stockid="Triangle arrow"
       markerWidth="1"
       markerHeight="1"
       viewBox="0 0 1 1"
       inkscape:isstock="true"
       inkscape:collect="always"
       preserveAspectRatio="xMidYMid">
      <path
         transform="scale(0.5)"
         style="fill:context-stroke;fill-rule:evenodd;stroke:context-stroke;stroke-width:1pt"
         d="M 5.77,0 -2.88,5 V -5 Z"
         id="path122" />
    </marker>
    <marker
       style="overflow:visible"
       id="Triangle"
       refX="0"
       refY="0"
       orient="auto-start-reverse"
       inkscape:stockid="Triangle arrow"
       markerWidth="1"
       markerHeight="1"
       viewBox="0 0 1 1"
       inkscape:isstock="true"
       inkscape:collect="always"
       preserveAspectRatio="xMidYMid">
      <path
         transform="scale(0.5)"
         style="fill:context-stroke;fill-rule:evenodd;stroke:context-stroke;stroke-width:1pt"
         d="M 5.77,0 -2.88,5 V -5 Z"
         id="path135" />
    </marker>
    <linearGradient
       id="swatch46"
       inkscape:swatch="solid">
      <stop
         style="stop-color:#000000;stop-opacity:1;"
         offset="0"
         id="stop46" />
    </linearGradient>
    <linearGradient
       inkscape:collect="always"
       xlink:href="#swatch133"
       id="linearGradient133"
       x1="75.083448"
       y1="232.2241"
       x2="117.78844"
       y2="232.2241"
       gradientUnits="userSpaceOnUse" />
    <linearGradient
       inkscape:collect="always"
       xlink:href="#swatch134"
       id="linearGradient134"
       x1="58.460045"
       y1="113.46929"
       x2="136.20747"
       y2="113.46929"
       gradientUnits="userSpaceOnUse" />
    <linearGradient
       inkscape:collect="always"
       xlink:href="#swatch135"
       id="linearGradient135"
       x1="79.291695"
       y1="155.58894"
       x2="109.92822"
       y2="155.58894"
       gradientUnits="userSpaceOnUse" />
  </defs>
  <g
     inkscape:label="Layer 1"
     inkscape:groupmode="layer"
     id="layer1"
     transform="translate(-2.7456616,-110.45466)">
    <path
       style="fill:#000000;stroke-width:0.264583"
       id="path30"
       d="m 5.1049628,291.73754 c 0.2274705,-0.0484 0.4544013,-0.0995 0.6824115,-0.14533 1.0247937,-0.20603 2.0350178,-0.41254 3.0356873,-0.72398 0.9526318,-0.29647 1.7733394,-0.61471 2.7097804,-0.96134 0.478354,-0.18994 0.959855,-0.37216 1.435062,-0.56986 1.482784,-0.61682 2.933158,-1.30733 4.417895,-1.92021 1.372814,-0.56669 1.88712,-0.75023 3.2743,-1.27625 2.397853,-0.92601 4.84891,-1.6992 7.279419,-2.53214 2.148713,-0.78052 4.261895,-1.65645 6.374863,-2.52841 1.8976,-0.75747 3.730683,-1.65936 5.566365,-2.55275 1.840762,-0.83 3.679103,-1.6574 5.502865,-2.52431 1.831768,-0.90117 3.609538,-1.90707 5.43315,-2.82464 2.089729,-1.02299 4.138829,-2.12572 6.185347,-3.23186 2.208932,-1.24412 4.327011,-2.6384 6.393336,-4.10485 1.528106,-1.1022 3.0002,-2.27876 4.398983,-3.54067 1.268394,-1.23238 2.411826,-2.58241 3.407609,-4.04241 0.432596,-0.64078 0.896816,-1.27238 1.216271,-1.98123 0.278252,-0.61742 0.421632,-1.26422 0.552852,-1.92384 0.150278,-1.33996 0.207431,-2.6904 0.281011,-4.03686 0.03519,-1.36621 0.119309,-2.72914 0.199099,-4.09319 0.161468,-1.49469 0.25508,-2.99326 0.306076,-4.49542 0.03835,-1.66484 0.04486,-3.33017 0.05832,-4.99534 0.04345,-1.40752 -0.133241,-2.80635 -0.374279,-4.18958 -0.320749,-1.62017 -0.755396,-3.21301 -1.051195,-4.83821 -0.285986,-1.68554 -0.323625,-3.3972 -0.35446,-5.10226 -0.01164,-1.53723 -0.115543,-3.07172 -0.168759,-4.60786 -0.05177,-1.36239 0.177054,-2.70337 0.361156,-4.04666 0.169659,-1.17491 0.217797,-2.36265 0.249849,-3.5479 0.01434,-0.9226 0.02281,-1.84529 0.02773,-2.76798 0.04895,-0.6641 0.01116,-1.29445 -0.16691,-1.93587 -0.606475,-1.41185 -1.556001,-2.64422 -2.50834,-3.83746 -1.470551,-1.7542 -3.12629,-3.34005 -4.793334,-4.90431 -1.752381,-1.65828 -3.509449,-3.30909 -5.209426,-5.02136 -1.836542,-1.8912 -3.652142,-3.80061 -5.575501,-5.60452 -1.979608,-1.77013 -4.118475,-3.33362 -6.321446,-4.81016 -2.263879,-1.41259 -4.497343,-2.86805 -6.645521,-4.45176 -1.897015,-1.36712 -3.640852,-2.92341 -5.302168,-4.5644 -1.680388,-1.70423 -3.151495,-3.59484 -4.741802,-5.38074 -1.300612,-1.46717 -2.571612,-2.95954 -3.893682,-4.40766 -1.090876,-1.1514 -2.157551,-2.3255 -3.21263,-3.50985 -0.814221,-0.92902 -1.617141,-1.86699 -2.462558,-2.76801 -0.702076,-0.81542 -1.523063,-1.50839 -2.362862,-2.17534 -0.893365,-0.70691 -1.841178,-1.339 -2.772068,-1.99425 -1.087987,-0.75168 -2.14964,-1.53959 -3.163293,-2.38898 -0.873531,-0.69399 -1.638807,-1.5056 -2.390891,-2.32567 -0.590543,-0.64887 -1.2462039,-1.23412 -1.846426,-1.87326 -0.3802367,-0.37376 -0.6539301,-0.83202 -0.9829868,-1.24618 -0.1069422,-0.174 -0.3116914,-0.26417 -0.4364154,-0.41684 -0.2441723,-0.26167 -0.4390729,-0.55951 -0.6167985,-0.87564 -0.068352,-0.20637 -0.5291297,-0.76266 -0.5068547,-0.95156 0.073074,-0.61968 0.7833585,-0.7376 1.2111189,-0.94267 0,0 -0.066077,-0.0451 -0.066077,-0.0451 v 0 c -0.4285083,0.0748 -0.8574328,0.1472 -1.2855246,0.22432 -0.023813,0.004 -1.1288983,0.006 -1.2050734,0.44347 -0.00838,0.0481 0.2828946,0.54647 0.2988175,0.5746 0.1504471,0.28989 0.2906239,0.69236 0.589796,0.85925 0.071248,0.21673 0.2822601,0.29651 0.4351009,0.46173 0.3690445,0.38949 0.6065692,0.89008 1.0028449,1.26021 0.594606,0.65587 1.2736137,1.23064 1.8727425,1.88305 0.7496907,0.83031 1.5166387,1.65069 2.3933047,2.35016 1.002577,0.85442 2.057567,1.64327 3.139257,2.39478 0.924668,0.65732 1.876547,1.27637 2.765651,1.98241 0.845955,0.66067 1.68421,1.33804 2.384255,2.15785 0.859663,0.89666 1.653039,1.8517 2.486363,2.77245 1.06331,1.1914 2.139628,2.37142 3.243336,3.52537 1.343035,1.45308 2.636199,2.94947 3.949535,4.42911 1.613393,1.78454 3.083169,3.69356 4.77615,5.40536 1.692968,1.66021 3.465201,3.23719 5.392862,4.62383 2.168668,1.58491 4.405416,3.06671 6.691913,4.47655 2.203511,1.46912 4.341791,3.02584 6.324021,4.78747 1.928502,1.79549 3.748248,3.69744 5.572595,5.59762 1.693231,1.71388 3.437755,3.3725 5.1947,5.0208 1.661221,1.55534 3.310361,3.13358 4.778137,4.8763 0.933106,1.16613 1.850871,2.37682 2.455862,3.75157 0.189384,0.62818 0.240813,1.26072 0.22029,1.91632 0.0077,0.9261 0.019,1.85234 7.93e-4,2.77841 -0.02458,1.18269 -0.06952,2.36687 -0.230671,3.54021 -0.182055,1.35236 -0.414073,2.70266 -0.360635,4.07362 0.05362,1.53615 0.162329,3.07045 0.173334,4.60773 0.03411,1.71015 0.07073,3.43113 0.345463,5.12244 0.289124,1.62161 0.7248,3.20962 1.030634,4.82803 0.253183,1.37739 0.444069,2.76919 0.399333,4.17408 0.0083,1.66676 0.0067,3.33376 -0.03933,5.00005 -0.05057,1.50185 -0.138438,3.00092 -0.297447,4.49567 -0.08688,1.36429 -0.167174,2.72727 -0.19903,4.09427 -0.07252,1.34611 -0.09928,2.6965 -0.244774,4.03655 -0.241784,1.44927 -0.720125,2.7448 -1.598451,3.94081 -0.98674,1.45192 -2.105488,2.80684 -3.349266,4.04763 -1.351663,1.29252 -2.835796,2.43403 -4.311208,3.58069 -2.019699,1.51302 -4.142472,2.88298 -6.340676,4.1231 -2.038728,1.11197 -4.093892,2.19396 -6.166905,3.24062 -1.820633,0.9252 -3.612706,1.90593 -5.439902,2.81779 -1.811571,0.87564 -3.634851,1.72114 -5.470213,2.54608 -1.834086,0.8754 -3.645241,1.80359 -5.52836,2.57178 -2.110047,0.86979 -4.210992,1.76805 -6.362785,2.5309 -2.38707,0.8559 -4.762722,1.74363 -7.13883,2.6294 -1.627111,0.62042 -3.250241,1.24439 -4.847786,1.9386 -1.106412,0.48078 -1.722403,0.78439 -2.824607,1.2736 -0.459912,0.20413 -0.923201,0.40058 -1.384802,0.60084 -2.076242,0.78701 -4.1723836,1.54673 -6.3842106,1.84836 z" />
    <path
       style="fill:#000000;stroke-width:0.264583"
       id="path31"
       d="m 201.02945,288.71304 c -1.82452,-0.11679 -3.63305,-0.35764 -5.43596,-0.6541 -2.63985,-0.48073 -5.1684,-1.3693 -7.65715,-2.34995 -3.85545,-1.61089 -7.65018,-3.36254 -11.48484,-5.02291 -2.94655,-1.28034 -5.89068,-2.57169 -8.77796,-3.98224 -1.23503,-0.60338 -2.79129,-1.41751 -4.01016,-2.04811 -3.53936,-1.91183 -7.10786,-3.77 -10.63874,-5.69751 -2.33239,-1.25799 -4.51834,-2.77085 -6.71255,-4.25488 -2.50705,-1.7446 -5.0195,-3.48345 -7.43903,-5.34849 -1.78334,-1.36751 -3.28185,-3.03633 -4.67298,-4.7888 -1.0667,-1.36967 -2.06894,-2.78495 -3.05987,-4.20946 -1.02792,-1.48496 -2.00177,-3.00803 -2.93205,-4.55592 -0.79544,-1.3954 -1.54074,-2.81841 -2.29756,-4.23486 -0.11823,-0.22364 -0.23496,-0.44808 -0.35469,-0.67092 -0.27344,-0.50891 -0.47596,-0.84321 -0.71559,-1.37311 -0.38959,-0.8615 -0.65824,-1.75662 -0.92328,-2.66174 -0.57791,-2.19148 -1.22399,-4.36353 -1.79358,-6.55709 -0.56703,-2.12285 -0.6924,-4.31495 -0.77007,-6.49949 -0.0188,-1.84868 -0.23868,-3.68106 -0.44463,-5.51504 -0.096,-1.13545 -0.2242,-2.2778 -0.18215,-3.41953 0.0273,-0.74181 0.0779,-0.94252 0.18692,-1.67263 0.32348,-1.81795 1.36461,-3.29672 2.44646,-4.74171 0.84417,-1.19883 1.78144,-2.31424 2.77007,-3.39449 1.36237,-1.50338 2.96321,-2.7677 4.58534,-3.97635 2.46927,-1.75343 5.10329,-3.25443 7.70262,-4.80227 2.37464,-1.34894 4.63686,-2.87797 6.85731,-4.46434 1.65658,-1.14669 3.19689,-2.44589 4.79712,-3.66725 1.92898,-1.44762 3.9508,-2.76463 5.9334,-4.1363 2.11028,-1.46841 4.15757,-3.02488 6.26025,-4.5037 2.03321,-1.44243 4.12738,-2.79152 6.24843,-4.10004 2.59532,-1.54205 5.17055,-3.11804 7.72338,-4.72941 2.52263,-1.62443 5.02983,-3.27411 7.51764,-4.95152 1.99929,-1.39105 4.04152,-2.71935 6.03762,-4.11465 2.58598,-1.804 5.07231,-3.75245 7.46514,-5.80507 1.45211,-1.29478 2.91223,-2.58159 4.30095,-3.94483 -0.0721,-0.30028 0.59333,-0.31881 0.58379,-0.59698 -0.006,-0.18609 -0.18366,-0.32395 -0.27549,-0.48593 0,0 -0.42541,-0.26778 -0.42541,-0.26778 v 0 c -1.03203,-0.18135 -0.66241,-0.22632 -1.33525,0.46139 -1.34476,1.38951 -2.77694,2.69091 -4.21384,3.98385 -2.37179,2.0682 -4.83716,4.03257 -7.4456,5.79649 -2.01815,1.36671 -4.05991,2.69865 -6.05091,4.10528 -2.46523,1.6967 -4.95349,3.36211 -7.47698,4.97103 -2.55436,1.6137 -5.14129,3.17563 -7.74033,4.71623 -2.13127,1.30631 -4.2523,2.62794 -6.28137,4.09059 -2.10169,1.47527 -4.11728,3.07114 -6.24328,4.51293 -1.99196,1.37166 -4.02715,2.68214 -5.97122,4.12204 -1.58974,1.22783 -3.1412,2.50486 -4.7738,3.67639 -2.193,1.60284 -4.45029,3.11728 -6.79846,4.485 -2.61545,1.54328 -5.25258,3.06268 -7.75317,4.78856 -1.64885,1.19902 -3.27544,2.46039 -4.65458,3.97026 -1.00128,1.07719 -1.95273,2.19045 -2.78304,3.40793 -1.07575,1.47638 -2.14531,2.97635 -2.48781,4.8119 -0.0958,0.62939 -0.17746,1.05325 -0.20559,1.69176 -0.0504,1.14419 0.0891,2.29308 0.16636,3.43228 0.20757,1.83523 0.43597,3.66773 0.47729,5.51709 0.0803,2.19253 0.17257,4.39936 0.74917,6.52985 0.57504,2.19372 1.20931,4.37103 1.7934,6.5624 0.26499,0.90783 0.52394,1.81562 0.90362,2.68428 0.25746,0.58906 0.40796,0.81908 0.71186,1.37749 0.12196,0.22409 0.2414,0.44953 0.3621,0.67429 0.75628,1.42176 1.51779,2.84078 2.30314,4.24677 0.93156,1.54696 1.90612,3.06891 2.92049,4.56283 0.99239,1.4272 1.99092,2.84849 3.05967,4.22065 1.39523,1.76438 2.88921,3.45721 4.68023,4.83529 2.42315,1.86902 4.94047,3.60979 7.44802,5.36292 3.0726,2.07963 6.17142,4.12285 9.46351,5.84682 3.51839,1.91448 7.07327,3.76167 10.59952,5.66161 4.17746,2.15937 8.42489,4.1747 12.76177,5.99631 3.82701,1.67018 7.61717,3.42722 11.48028,5.01226 2.47215,0.96078 4.9822,1.84161 7.6093,2.27333 1.67839,0.24561 3.36788,0.42841 5.06751,0.35962 z" />
    <path
       style="fill:#000000;stroke-width:0.264583"
       id="path32"
       d="m 76.630971,135.11389 c -0.512757,2.22619 -0.486175,4.5282 -0.44187,6.79846 0.04393,2.71639 0.345196,5.4191 0.668956,8.1137 0.450205,3.02047 1.108271,6.00431 1.704354,8.9981 0.563536,2.82419 1.272439,5.61611 1.911511,8.42348 0.370837,1.41187 0.615582,2.85756 1.066549,4.24831 0.239016,0.73711 0.431522,1.17032 0.723923,1.88568 0.654151,1.52294 1.453508,2.97466 2.445687,4.30228 0.634698,0.80355 1.365962,1.52191 2.097768,2.23539 0.687104,0.66008 1.36594,1.3281 2.023165,2.01797 0.997604,1.11814 1.863638,2.34305 2.61402,3.63827 0.524735,0.93094 0.9775,1.89933 1.453663,2.85544 0.419261,0.68062 0.694767,1.42868 0.97463,2.17304 0.252751,0.56492 0.474464,1.14158 0.654084,1.73364 0.0108,0.0708 0.07755,0.2032 0.03548,0.2521 0.478642,0.18716 0.924134,0.51465 1.435931,0.56146 0.155403,0.0142 0.148908,-0.27434 0.227158,-0.40935 0.110424,-0.19053 0.223608,-0.37946 0.338799,-0.56714 0.672068,-1.09497 1.345359,-2.18478 1.994128,-3.29407 1.660143,-2.74557 3.060253,-5.63528 4.457573,-8.52003 1.18564,-2.58367 2.49795,-5.10536 3.77461,-7.6444 1.2279,-2.45427 2.3257,-4.96658 3.28803,-7.53578 0.69588,-2.10151 1.24396,-4.24696 1.81014,-6.38566 0.62974,-2.27553 1.51461,-4.46719 2.2921,-6.69349 0.6726,-2.02536 1.40298,-4.02823 2.37427,-5.93019 0.88352,-1.67474 1.97522,-3.22332 3.12388,-4.72361 0.93386,-1.2648 1.86127,-2.53283 2.85641,-3.75048 1.70331,-1.93833 3.58165,-3.71222 5.48016,-5.45616 0.76819,-0.68989 0.45301,-0.29303 0.88776,-1.03764 0.067,-0.1148 0.20333,-0.20918 0.20493,-0.34211 0.002,-0.16005 -0.13038,-0.29238 -0.19557,-0.43857 0,0 -0.13493,-0.0874 -0.13493,-0.0874 v 0 c -0.24053,-0.0425 -0.47797,-0.14527 -0.72157,-0.12753 -0.15598,0.0113 -0.27952,0.14034 -0.41925,0.21058 -0.84006,0.4223 -0.43756,0.14904 -1.18867,0.85545 -1.85411,1.7795 -3.64996,3.62792 -5.32066,5.58096 -0.98307,1.22836 -1.91797,2.49178 -2.83482,3.77024 -1.12326,1.52802 -2.21018,3.09145 -3.09889,4.77017 -0.3458,0.68585 -0.57989,1.12011 -0.87699,1.83081 -0.56405,1.34923 -0.99748,2.75311 -1.483,4.1309 -0.78534,2.22613 -1.69167,4.41287 -2.32305,6.69047 -0.5662,2.13662 -1.09358,4.28496 -1.77056,6.39048 -0.9409,2.57151 -2.01188,5.09336 -3.25186,7.53622 -1.29341,2.53197 -2.58427,5.06555 -3.76917,7.65084 -1.38707,2.88492 -2.772206,5.77898 -4.451892,8.50861 -0.662135,1.10259 -1.350049,2.18006 -2.050677,3.2581 -0.120642,0.18563 -0.238529,0.37303 -0.356949,0.56008 -0.08592,0.13571 -0.355873,0.28235 -0.256064,0.40819 0.322234,0.40628 0.853652,0.58894 1.280478,0.88341 -0.05237,-0.10533 -0.09267,-0.21363 -0.128133,-0.32705 -0.207126,-0.59929 -0.440002,-1.18916 -0.704831,-1.76545 -0.301165,-0.75631 -0.57653,-1.52719 -1.028023,-2.2116 -0.503785,-0.96965 -0.980255,-1.95386 -1.530368,-2.8987 -0.801032,-1.29881 -1.674104,-2.55188 -2.687431,-3.69614 -0.657776,-0.6982 -1.350749,-1.3617 -2.039372,-2.02939 -0.742193,-0.71848 -1.487646,-1.43815 -2.143445,-2.23824 -1.021897,-1.31618 -1.824723,-2.77752 -2.500352,-4.29932 -0.317603,-0.7521 -0.484844,-1.10556 -0.740812,-1.88225 -0.461312,-1.39976 -0.749456,-2.84999 -1.127945,-4.27232 -0.685914,-2.82513 -1.42833,-5.63637 -2.035302,-8.48034 -0.608748,-3.00139 -1.297541,-5.98901 -1.757217,-9.01834 -0.362077,-2.70504 -0.660122,-5.42271 -0.758804,-8.15162 -0.07378,-2.2739 -0.142359,-4.57388 0.402034,-6.80227 z" />
    <path
       style="fill:#000000;stroke-width:0.264583"
       id="path33"
       d="m 34.443061,137.88967 c 0.341077,1.42346 1.067088,2.70327 1.836285,3.9332 0.742127,1.24922 1.594025,2.42755 2.472309,3.5833 0.794472,1.11733 1.553874,2.26618 2.204548,3.47359 0.728528,1.50053 1.688248,2.7452 2.805001,3.96921 1.277477,1.32286 2.576545,2.62485 3.869947,3.93217 1.295881,1.25441 2.659097,2.43568 3.96649,3.67787 1.115571,1.10694 2.159119,2.28239 3.202586,3.45651 0.857014,1.01143 1.739871,1.99578 2.453283,3.11601 0.647104,1.13815 1.186825,2.329 1.846037,3.461 0.658104,1.1692 1.457283,2.2444 2.279952,3.30033 0.687816,0.87614 1.443373,1.69491 2.208487,2.50322 0.492559,0.50873 1.011616,0.98141 1.590921,1.38884 0.594178,0.40632 1.083636,0.73125 1.888329,0.95481 0.104981,0.0292 0.09227,-0.2017 0.103431,-0.31008 0.03187,-0.30943 -0.09446,-0.78014 -0.150778,-1.0563 -0.312955,-1.75291 -0.935805,-3.4191 -1.638139,-5.04744 -0.76042,-1.71569 -1.566092,-3.41056 -2.311487,-5.13295 -0.727366,-1.5809 -1.18142,-3.25119 -1.595676,-4.93412 -0.501359,-2.13949 -0.647935,-4.33446 -0.748519,-6.52243 -0.02654,-2.0044 -0.368559,-3.97422 -0.755428,-5.93413 -0.267991,-1.24493 -0.612055,-2.47184 -0.923687,-3.70639 -0.240088,-0.89113 -0.610007,-1.74065 -1.011044,-2.56946 -0.692126,-1.22135 -1.473369,-2.38951 -2.192713,-3.59585 -0.752195,-1.41004 -1.602624,-2.76254 -2.442168,-4.12107 -0.486174,-0.78072 -0.976214,-1.5712 -1.315633,-2.43001 -0.135543,-0.34296 -0.344765,-1.02371 -0.453657,-1.3665 -0.30898,-0.69937 -0.502462,-1.56509 -0.956373,-2.19526 -0.254847,-0.3538 -0.422939,-0.43214 -0.774613,-0.68959 -0.155398,-0.006 -0.310795,-0.0127 -0.466196,-0.019 0,0 0.06889,0.0407 0.06889,0.0407 v 0 c -0.08595,-0.10311 -0.171903,-0.20621 -0.257855,-0.30932 -0.07263,0.007 -0.162764,-0.028 -0.217882,0.0197 -0.05053,0.0438 -0.04909,0.13285 -0.03322,0.1978 0.03255,0.13318 0.113954,0.24941 0.172787,0.37324 0.277026,0.58309 0.565208,1.1623 0.762981,1.77917 0.04257,0.13626 0.381421,1.22893 0.438965,1.38222 0.3283,0.87459 0.822142,1.67616 1.321125,2.46066 0.829668,1.36144 1.690148,2.70551 2.437011,4.11555 0.705541,1.19985 1.465919,2.36573 2.165999,3.5676 0.405463,0.81404 0.761584,1.65792 1.019918,2.53091 0.331711,1.23806 0.691743,2.46945 0.975667,3.71957 0.398883,1.95164 0.743688,3.91606 0.780463,5.91414 0.08548,2.19495 0.24611,4.39465 0.715819,6.54579 0.3849,1.69659 0.835684,3.37104 1.567077,4.95746 0.747699,1.72151 1.546847,3.41978 2.312149,5.13346 0.705141,1.60974 1.342429,3.2551 1.629261,4.99853 0.03804,0.19364 0.08383,0.38592 0.114126,0.58092 0.162131,1.04364 -0.318651,0.26327 1.428252,1.37428 0.09879,0.0628 -0.460504,-0.26031 -0.304016,-0.17592 -0.606105,-0.39733 -1.145223,-0.8671 -1.654908,-1.38207 -0.777317,-0.80747 -1.543968,-1.62668 -2.243,-2.50392 -0.849945,-1.05714 -1.684869,-2.12751 -2.353072,-3.31303 -0.687271,-1.12737 -1.227227,-2.32622 -1.872538,-3.47649 -0.719228,-1.14245 -1.6333,-2.12843 -2.501247,-3.15836 -1.05302,-1.18635 -2.12761,-2.35456 -3.241958,-3.48379 -1.316045,-1.24712 -2.688939,-2.43172 -3.997274,-3.68709 -1.31354,-1.31072 -2.623177,-2.62565 -3.923435,-3.94958 -0.559702,-0.60728 -1.124186,-1.21348 -1.609095,-1.88419 -0.403768,-0.55847 -0.526812,-0.80543 -0.869125,-1.39975 -0.132392,-0.22986 -0.264509,-0.45988 -0.396764,-0.68981 -0.710456,-1.2087 -1.462288,-2.39579 -2.29158,-3.52699 -0.933725,-1.17394 -1.849665,-2.36076 -2.632019,-3.64399 -0.770316,-1.21105 -1.511276,-2.48025 -1.819127,-3.89778 z" />
    <path
       style="fill:#000000;stroke-width:0.264583"
       id="path34"
       d="m 17.283004,139.75023 c 0.840288,1.49297 1.892373,2.84709 2.946634,4.19209 1.031365,1.35074 2.174677,2.60887 3.240621,3.93153 0.877499,1.16699 1.850333,2.25295 2.863477,3.30225 0.693835,0.73145 1.432237,1.41796 2.210911,2.05793 0.554259,0.46279 1.125106,0.90038 1.707597,1.32614 0.293309,0.25092 0.609899,0.47816 0.891429,0.7425 0.240688,0.24703 0.446391,0.52367 0.660635,0.79323 0.446971,0.5262 0.906417,1.04065 1.344554,1.5746 0.195123,0.32057 0.485037,0.57116 0.698799,0.87636 -0.02798,0.15799 -0.237069,-0.19974 -0.03279,0.13589 0.542303,0.5152 1.054179,1.05844 1.558481,1.61079 0.423605,0.47435 0.85345,0.94283 1.293031,1.4024 0.457476,0.43676 0.915731,0.87046 1.392198,1.28662 0.366054,0.32744 0.757524,0.6334 1.040588,1.03926 0.360955,0.66295 -0.08753,0.34644 1.750253,0.81486 0.08005,0.0204 -0.04205,-0.16021 -0.07277,-0.23689 -0.03809,-0.0951 -0.08874,-0.18463 -0.133109,-0.27695 -0.679439,-1.07707 -1.273114,-2.20201 -1.864725,-3.32862 -0.661358,-1.3342 -1.278101,-2.68718 -1.968891,-4.00662 -0.537938,-0.99225 -1.202346,-1.90719 -1.835433,-2.83939 -0.48169,-0.69035 -1.020332,-1.33474 -1.473415,-2.04491 -0.48668,-0.73771 -0.866777,-1.53548 -1.205616,-2.34941 -0.404109,-1.02396 -0.450376,-2.13224 -0.621099,-3.20784 -0.223951,-1.06891 -0.503938,-2.12525 -0.747744,-3.19009 -0.298188,-1.08135 -0.720138,-2.12163 -1.047753,-3.19399 -0.183295,-0.7532 -0.415258,-1.49171 -0.700085,-2.21235 -0.203827,-0.4038 -0.518398,-0.57309 -0.904832,-0.77319 0,0 -0.354521,-0.13699 -0.354521,-0.13699 v 0 c -0.245943,-0.11461 -0.451098,-0.22401 -0.408567,0.13892 0.292468,0.71991 0.545124,1.45433 0.731338,2.20995 0.325964,1.06583 0.732909,2.10376 1.039691,3.17535 0.239778,1.06576 0.531526,2.11874 0.76441,3.18571 0.180724,1.08097 0.211767,2.19379 0.581917,3.23525 0.331507,0.81948 0.696012,1.62793 1.178853,2.37157 0.445074,0.72677 0.990476,1.37375 1.492385,2.06088 0.634458,0.93365 1.310725,1.84143 1.861598,2.82892 0.702096,1.31876 1.331039,2.6701 1.98552,4.01293 0.57593,1.11705 1.14548,2.23844 1.815103,3.30332 0.04539,0.0865 0.09156,0.17254 0.136176,0.25942 0.03121,0.0608 0.03361,0.14687 0.09129,0.18347 2.21121,1.40281 2.005793,1.36865 1.512437,0.70804 -0.320212,-0.40921 -0.684839,-0.7689 -1.087405,-1.09867 -0.474846,-0.41336 -0.933752,-0.84066 -1.391862,-1.27099 -0.449546,-0.46013 -0.886466,-0.93229 -1.319356,-1.40809 -0.49504,-0.54384 -0.981162,-1.09626 -1.525259,-1.5925 -0.150027,-0.11184 -0.243435,-0.26521 -0.423175,-0.33694 -0.310845,-0.25671 -0.556066,-0.58585 -0.795885,-0.90662 -0.450088,-0.52922 -0.90266,-1.05557 -1.359799,-1.57857 -0.221901,-0.27552 -0.423286,-0.56868 -0.678141,-0.81559 -0.289959,-0.2858 -0.638135,-0.50671 -0.942377,-0.77794 -0.596841,-0.43832 -1.200819,-0.86481 -1.766795,-1.34469 -0.794943,-0.63587 -1.543764,-1.32765 -2.249024,-2.06177 -1.031698,-1.05608 -2.026129,-2.14504 -2.922937,-3.31989 -1.130565,-1.32649 -2.307896,-2.61326 -3.3794,-3.98875 -1.064813,-1.33687 -2.135215,-2.68461 -2.95901,-4.18796 z" />
    <path
       style="fill:#000000;stroke-width:0.264583"
       id="path35"
       d="m 10.961312,140.59697 c 0.393147,1.0511 0.834899,2.07923 1.386114,3.05663 0.334368,0.63601 0.758888,1.20724 1.288826,1.69127 0.344937,0.30501 0.687198,0.61277 1.030012,0.92031 0.380071,0.32036 0.778046,0.61731 1.137135,0.96203 0.242649,0.25022 0.445206,0.53207 0.663868,0.80127 0.279322,0.28842 0.947266,0.82422 1.202395,0.3788 0.07504,-0.14037 0.01112,-0.27929 -0.01538,-0.424 -0.01588,-0.29735 -0.101475,-0.58197 -0.170703,-0.86979 -0.058,-0.41172 -0.118736,-0.8218 -0.190177,-1.2319 -0.09722,-0.50163 -0.306025,-0.97131 -0.454885,-1.45813 -0.08603,-0.26787 -0.238726,-0.48374 -0.441005,-0.67378 -0.217323,-0.18105 -0.392576,-0.40405 -0.584751,-0.61015 -0.297583,-0.29427 -0.571029,-0.58244 -0.782118,-0.94675 -0.169569,-0.31544 -0.375992,-0.61404 -0.478499,-0.95996 -0.04964,-0.27799 -0.144039,-0.54464 -0.211705,-0.81834 -0.01672,-0.13164 -0.03461,-0.19382 -0.145177,-0.27129 0,0 -0.920864,-0.35989 -0.920864,-0.35989 v 0 c 0.05024,0.0142 0.06534,0.0803 0.08336,0.16087 0.07141,0.27439 0.167024,0.54333 0.214311,0.82222 0.09325,0.35863 0.293162,0.66705 0.474863,0.9867 0.221451,0.41206 0.431315,0.64916 0.759297,0.96837 0.204751,0.19816 0.363718,0.43765 0.587035,0.61702 0.199067,0.17984 0.370546,0.36328 0.464052,0.62173 0.152729,0.48368 0.364705,0.95014 0.467974,1.44825 0.06675,0.4121 0.142386,0.8209 0.184947,1.23621 0.06167,0.2873 0.165504,0.56613 0.166637,0.86256 0.0243,0.13427 0.06775,0.26085 0.09828,0.39072 -0.01186,0.0287 -0.05882,0.0656 -0.03558,0.0862 1.239068,1.10175 0.825241,0.56917 0.487541,0.364 -0.246652,-0.25043 -0.434725,-0.56492 -0.6846,-0.81586 -0.356244,-0.35383 -0.755991,-0.65355 -1.14495,-0.96971 -0.356056,-0.30703 -0.6969,-0.63143 -1.058929,-0.93179 -0.555262,-0.47693 -0.990336,-1.06067 -1.353742,-1.69469 -0.614972,-0.96889 -1.111918,-1.99838 -1.486423,-3.08537 z" />
    <path
       style="fill:#000000;stroke-width:0.264583"
       id="path36"
       d="m 29.276691,137.17793 c 0.581691,0.71826 1.025572,1.52783 1.415922,2.36161 0.197493,0.37647 0.287865,0.78721 0.401731,1.19227 0.108569,0.36687 0.195125,0.74529 0.331493,1.10306 0.101762,0.25366 0.270039,0.46498 0.365361,0.72127 0.09099,0.30264 0.199043,0.59969 0.325239,0.88936 0.108405,0.33037 0.322617,0.60333 0.497504,0.8985 0.106561,0.24147 0.156353,0.50016 0.256868,0.74548 0.07264,0.16966 0.08509,0.35429 0.174178,0.5166 0.107066,0.17039 0.275757,0.28322 0.433842,0.40157 0.134808,0.10713 0.251796,0.23557 0.35247,0.37496 0.03936,0.0423 0.04398,0.0725 0.0433,0.1302 0.0038,0.0436 -0.0085,0.0732 -0.02986,0.0952 -0.453922,-0.21686 -0.55245,0.0217 1.106056,0.47448 0.04358,0.0119 0.193411,-0.51766 0.203391,-0.55163 0.157202,-0.41472 0.366482,-0.80008 0.494392,-1.22686 0.07323,-0.27938 0.107358,-0.56456 0.129408,-0.85163 0.02545,-0.11269 2.65e-4,-0.23308 0.02915,-0.34472 -0.0013,-0.12527 0.0016,-0.25032 0.0027,-0.37557 0.01955,-0.12918 -0.04278,-0.21994 -0.118155,-0.31679 -0.164856,-0.32774 -0.358836,-0.63877 -0.537027,-0.95921 -0.225708,-0.35848 -0.413737,-0.73838 -0.622287,-1.10591 -0.110662,-0.14467 -0.192725,-0.30794 -0.335709,-0.42362 -0.204721,-0.18375 -0.360301,-0.43084 -0.532519,-0.64723 -0.336388,-0.41004 -0.611732,-0.86572 -0.919824,-1.29674 -0.173955,-0.22697 -0.362296,-0.45211 -0.4617,-0.72357 -0.03142,-0.1064 -0.09777,-0.19105 -0.178361,-0.26434 0,0 -1.362517,-0.53463 -1.362517,-0.53463 v 0 c 0.08534,0.0386 0.155676,0.1005 0.214852,0.17274 0.07691,0.2955 0.257554,0.54334 0.454642,0.7736 0.317209,0.42169 0.575942,0.88561 0.903621,1.30002 0.187325,0.21247 0.35706,0.4469 0.510945,0.68438 0.173622,0.0911 0.249917,0.2184 0.366185,0.37162 0.250963,0.33103 0.372656,0.76079 0.627441,1.09438 0.166836,0.32092 0.360858,0.6255 0.520981,0.9485 0.03913,0.11669 0.146965,0.14614 0.150056,0.25483 0.0016,0.12769 0.0046,0.25521 0.0062,0.38291 0.02841,0.11948 0.01482,0.24493 0.03067,0.3662 5.29e-4,0.28077 -0.02545,0.56174 -0.08723,0.83601 -0.117084,0.43047 -0.326123,0.81735 -0.479886,1.2338 -0.06027,0.20642 -0.04343,0.16987 -0.122629,0.36203 -0.01733,0.042 -0.08853,0.0941 -0.055,0.12488 1.179102,1.08127 1.307314,0.92024 0.894583,0.67245 -0.02365,-0.038 -0.02262,-0.0829 -0.02305,-0.12837 -7.94e-4,-0.0655 0.01966,-0.13148 -0.02706,-0.184 -0.1114,-0.14684 -0.233397,-0.2858 -0.368715,-0.41118 -0.161936,-0.10655 -0.320077,-0.22115 -0.445694,-0.37056 -0.110783,-0.15276 -0.11979,-0.33376 -0.187706,-0.50891 -0.115199,-0.24806 -0.176075,-0.50619 -0.26871,-0.76175 -0.174305,-0.29631 -0.400857,-0.5603 -0.508135,-0.89225 -0.126315,-0.29334 -0.268965,-0.58152 -0.347189,-0.89306 -0.08829,-0.27157 -0.254966,-0.48667 -0.387816,-0.73637 -0.154929,-0.35069 -0.238715,-0.73639 -0.349681,-1.10242 -0.1216,-0.4168 -0.233064,-0.83613 -0.438529,-1.22237 -0.404614,-0.84098 -0.859993,-1.6593 -1.444024,-2.39111 z" />
    <path
       style="fill:#000000;stroke-width:0.264583"
       id="path37"
       d="m 59.520846,130.79238 c -0.148162,1.17101 -0.164656,2.35192 -0.0576,3.52633 0.109564,0.81494 0.360553,1.58328 0.789842,2.28324 0.468254,0.66783 0.836946,1.39574 1.278802,2.0799 0.352772,0.55035 0.619035,1.15068 0.901841,1.73875 0.212635,0.39667 0.431151,0.79245 0.499128,1.24254 -0.01238,0.0774 -0.04334,0.16779 -0.0204,0.24524 0.06254,0.49583 0.329094,0.95395 0.530812,1.40551 0.375431,0.73612 0.719294,1.48685 1.076082,2.23201 0.125367,0.29496 0.300304,0.57517 0.368644,0.89136 0.02111,0.17229 0.02244,0.33691 0.07607,0.50399 0.111311,0.32072 0.216744,0.64368 0.329901,0.96384 0.09837,0.201 0.158227,0.4183 0.260581,0.6171 0.238156,0.39938 0.201758,0.35612 1.304856,0.30956 0.123759,-0.005 0.09867,-0.22737 0.153881,-0.33825 0.240673,-0.48327 0.531109,-0.93379 0.825847,-1.38503 0.637291,-0.93862 1.384345,-1.78626 1.838889,-2.83362 0.299823,-0.71286 0.463412,-1.46134 0.542877,-2.22722 0.06521,-0.67051 0.113419,-1.34529 0.221546,-2.01057 0.104608,-0.69801 0.245806,-1.38767 0.382614,-2.07983 0.176943,-1.01357 0.236374,-2.04388 0.288605,-3.07021 0.05513,-0.51497 -0.01614,-1.04199 0.05568,-1.55443 0.09065,-0.48291 0.225385,-0.95545 0.379177,-1.42177 0.210796,-0.60555 0.461026,-1.21041 0.497218,-1.85943 0.06046,-1.08432 -0.08549,-0.0413 0.02788,-0.76479 0,0 -0.06786,-0.0424 -0.06786,-0.0424 v 0 c -0.127603,0.0279 -0.261789,0.0345 -0.382812,0.0836 -0.803781,0.32622 -1.021064,1.17434 -1.282303,1.91686 -0.164328,0.47006 -0.309147,0.94728 -0.404366,1.43633 -0.08236,0.51904 0.0059,1.05443 -0.0434,1.5774 -0.03546,1.02049 -0.09791,2.0422 -0.283432,3.04819 -0.146359,0.69094 -0.304403,1.37627 -0.397057,2.07742 -0.117912,0.66626 -0.168561,1.34685 -0.224364,2.02047 -0.06673,0.75541 -0.201679,1.49947 -0.501325,2.20174 -0.435025,1.04574 -1.174094,1.89327 -1.80294,2.826 -0.301971,0.4535 -0.6009,0.9081 -0.854284,1.39136 -0.05961,0.11369 -0.244829,0.24553 -0.166515,0.34723 0.280471,0.36426 0.728877,0.56058 1.087244,0.84854 0.02294,0.0184 -0.05288,-0.0258 -0.07932,-0.0387 -0.218813,-0.13659 -0.241001,-0.38511 -0.360286,-0.60363 -0.128585,-0.31019 -0.204644,-0.64649 -0.325292,-0.95874 -0.06471,-0.16411 -0.07899,-0.31683 -0.08228,-0.49338 -0.0848,-0.33033 -0.239725,-0.62763 -0.395144,-0.93048 -0.367078,-0.74462 -0.714582,-1.498 -1.094635,-2.23635 -0.188542,-0.42794 -0.453204,-0.87951 -0.505983,-1.34741 0.0094,-0.12621 -0.09824,-0.24765 -0.147318,-0.35574 -0.190137,-0.45485 -0.397952,-0.89766 -0.645313,-1.32518 -0.287838,-0.594 -0.567119,-1.1968 -0.917909,-1.75651 -0.458403,-0.68702 -0.854389,-1.41219 -1.318463,-2.09562 -0.43955,-0.68982 -0.694447,-1.45782 -0.823963,-2.26529 -0.131173,-1.17629 -0.09862,-2.35632 0.0067,-3.53431 z" />
    <path
       style="fill:#000000;stroke-width:0.264583"
       id="path38"
       d="m 76.911239,136.31823 c 0.309822,-0.74426 0.68132,-1.44195 1.196993,-2.06033 0.153932,-0.19774 0.314127,-0.36407 0.523693,-0.49102 0.252103,-0.12694 0.464322,-0.30934 0.686339,-0.48081 0.519737,-0.47092 1.070303,-0.90933 1.611498,-1.35633 0.387739,-0.33508 0.799047,-0.64306 1.173253,-0.9931 0.319926,-0.33935 0.650525,-0.65653 1.033007,-0.92357 0.373316,-0.159 0.530302,-0.33399 0.721783,-0.67759 0,0 -0.371776,-0.24616 -0.371776,-0.24616 v 0 c -0.451173,0.0317 -0.908315,0.0583 -1.294898,0.32088 -0.39031,0.26639 -0.71212,0.59906 -1.041775,0.93598 -0.38018,0.33774 -0.776071,0.65817 -1.153269,1.00008 -0.534654,0.45489 -1.082963,0.89381 -1.620954,1.34383 -0.221758,0.16438 -0.433723,0.34002 -0.680783,0.46719 -0.226433,0.12162 -0.357013,0.34852 -0.521986,0.54001 -0.508405,0.63604 -0.85874,1.357 -1.203775,2.09277 z" />
    <path
       style="fill:#000000;stroke-width:0.264583"
       id="path39"
       d="m 73.523133,127.9049 c -0.168016,1.04944 -0.515435,2.04522 -0.913636,3.0248 -0.184803,0.43786 -0.354412,0.88302 -0.417795,1.35549 -0.04078,0.31738 -0.05653,0.63594 -0.05769,0.95561 -0.0606,0.29721 -0.140568,0.58917 -0.183751,0.89038 -0.02989,0.18321 -0.03833,0.36795 -0.0472,0.55293 -0.0019,0.0493 -0.0033,0.0985 -0.0083,0.14739 0.0076,0.0535 0.0048,0.10971 0.0024,0.16424 -0.0086,0.0262 -0.01929,0.0262 -0.04357,0.0299 0.336164,0.1561 0.650989,0.3705 1.008491,0.46831 0.08059,0.022 0.140991,-0.0897 0.211487,-0.13453 0.862494,-0.62084 1.625224,-1.35762 2.405824,-2.07432 0.581703,-0.57462 1.224608,-1.07912 1.834256,-1.62174 0.200562,-0.18681 0.385712,-0.4029 0.491426,-0.65823 0.231757,-0.45778 0.6618,-0.79733 1.010934,-1.16584 0.769323,-0.81921 1.462492,-1.70495 2.147183,-2.59479 0.148193,-0.22601 0.170411,-0.41466 0.0692,-0.6562 0,0 -0.06586,-0.0454 -0.06586,-0.0454 v 0 c -0.387562,-0.0979 -0.551455,-0.0868 -0.870752,0.18613 -0.671965,0.89589 -1.360024,1.7848 -2.155846,2.57567 -0.367737,0.37527 -0.804064,0.71703 -1.064715,1.17963 -0.100187,0.24081 -0.278424,0.43983 -0.456184,0.62681 -0.576771,0.56927 -1.201613,1.08935 -1.787115,1.64977 -0.775952,0.71495 -1.529448,1.45949 -2.414019,2.04396 -0.06969,0.0378 -0.25808,0.0511 -0.209068,0.1134 0.192206,0.24439 0.494922,0.37649 0.742384,0.56473 -0.01932,-0.0227 -0.03979,-0.043 -0.04365,-0.0744 -0.0024,-0.0551 -0.0054,-0.11211 0.0011,-0.16607 -0.007,-0.0497 -0.009,-0.0998 -0.0087,-0.15025 -0.0013,-0.18318 0.01315,-0.366 0.03396,-0.54793 0.0416,-0.30729 0.119366,-0.60594 0.170989,-0.91127 -0.0053,-0.32641 -0.02593,-0.65315 -0.01148,-0.97933 0.05284,-0.47202 0.211924,-0.91281 0.381164,-1.35509 0.334034,-1.0192 0.538528,-2.0693 0.761953,-3.11721 z" />
    <path
       style="fill:#000000;stroke-width:0.264583"
       id="path40"
       d="m 51.751663,128.72921 c 0.297733,0.86451 0.650902,1.70761 0.979975,2.56011 0.125886,0.34053 0.258307,0.68059 0.428082,1.00192 0.176321,0.25668 0.369541,0.49914 0.545701,0.75641 0.180432,0.22666 0.279368,0.4977 0.381071,0.76519 0.09112,0.33613 0.320106,0.60353 0.46623,0.91393 0.0891,0.34547 0.275077,0.62631 0.50132,0.89512 0.28589,0.33825 0.614248,0.62853 0.962615,0.89965 0.498819,0.38471 1.043619,0.67729 1.592537,0.99179 0.08019,0.0213 0.180859,0.12261 0.270047,0.0969 0.02545,-0.042 0.0626,-0.0789 0.07639,-0.12608 0.02508,-0.0857 -0.01471,-0.17815 -0.01656,-0.26746 -0.0058,-0.2766 -0.0046,-0.5536 -0.0043,-0.83024 7.93e-4,-0.55266 0.0051,-1.10529 0.01069,-1.65792 0.004,-0.47016 -0.0016,-0.94025 -0.0042,-1.41041 -0.01011,-0.5421 0.0076,-1.08408 0.006,-1.62617 -0.01286,-0.64601 -0.0127,-1.29216 -0.0069,-1.93824 -0.03543,-0.21247 0.09464,-0.52055 -0.07047,-0.68993 -0.101902,-0.0575 -0.203804,-0.11508 -0.305708,-0.17261 0,0 -0.334282,-0.17033 -0.334282,-0.17033 v 0 c -0.101902,-0.0463 -0.203804,-0.0926 -0.305705,-0.13892 -0.170635,0.001 -0.03634,0.51046 -0.07048,0.61812 0.0057,0.64373 0.0061,1.28754 -0.0069,1.9312 -0.0016,0.54413 0.01611,1.08815 0.006,1.63228 -0.0026,0.46851 -0.0081,0.93694 -0.0052,1.40546 0.0042,0.55514 0.0061,1.11029 0.0042,1.66545 -2.22e-4,0.0871 -0.03429,1.0718 -0.0052,1.1052 0.02085,0.024 0.0635,1.6e-4 0.09525,2.4e-4 -0.03994,-0.0446 -0.104146,-0.059 -0.156189,-0.0885 1.583584,0.92921 0.530013,0.31604 0.193037,0.0539 -0.355748,-0.26754 -0.699987,-0.54317 -0.986634,-0.88727 -0.232992,-0.25773 -0.44465,-0.52229 -0.521006,-0.87081 -0.134388,-0.31721 -0.366231,-0.57756 -0.469866,-0.90835 -0.09849,-0.27318 -0.185097,-0.55696 -0.368467,-0.7876 -0.179213,-0.25321 -0.351329,-0.50853 -0.549373,-0.74783 -0.190439,-0.31421 -0.320524,-0.65953 -0.457131,-0.99956 -0.33995,-0.85262 -0.722058,-1.6889 -0.996323,-2.56696 z" />
    <path
       style="fill:#000000;stroke-width:0.264583"
       id="path41"
       d="m 147.94537,137.30306 c -1.57921,0.93186 -2.95403,2.17284 -4.23943,3.47036 -1.06424,1.1319 -2.06582,2.32015 -2.90237,3.63075 -0.54149,0.83396 -0.87318,1.7717 -1.27236,2.67563 -0.53238,1.1989 -1.10964,2.38116 -1.7598,3.52081 -0.73311,1.09964 -1.74035,1.98602 -2.7159,2.86554 -1.4434,1.2819 -2.87372,2.57736 -4.29564,3.88282 -1.4531,1.43357 -2.92032,2.85339 -4.36716,4.29329 -1.06074,0.98122 -2.04078,2.04268 -3.03441,3.08983 -0.71798,0.75216 -1.29543,1.61508 -1.80479,2.51725 -0.52316,0.83531 -0.91244,1.73552 -1.29832,2.63823 -0.18363,0.43503 -0.30146,0.8852 -0.52262,1.30402 -0.29514,0.48648 -0.63142,0.9446 -0.989,1.38653 -0.13764,0.13473 -0.23908,0.32986 -0.41217,0.42593 -0.0565,0.0126 -0.0963,0.13462 -0.14622,0.20477 -0.22564,0.32227 -0.49721,0.6083 -0.76493,0.89527 -0.0807,0.0736 -0.14818,0.16358 -0.23571,0.22949 -0.43913,-0.15078 0.86782,0.37425 1.33058,0.41197 0.18068,0.0147 0.31413,-0.18104 0.47169,-0.27068 0.76128,-0.43317 0.49601,-0.28455 1.30741,-0.7145 1.87865,-0.91884 3.71217,-1.92233 5.54325,-2.93167 1.77148,-0.96427 3.52185,-1.96601 5.32751,-2.86565 1.88924,-0.96266 3.77786,-1.92634 5.66325,-2.89653 1.67374,-0.84335 3.31919,-1.74103 4.96729,-2.63297 1.65228,-0.90161 3.30691,-1.80003 4.83601,-2.90148 1.28106,-1.02136 2.58196,-2.01724 3.87605,-3.0219 1.67315,-1.27739 3.45984,-2.39425 5.24306,-3.50895 1.76456,-1.12265 3.55502,-2.20311 5.33941,-3.29355 0.96192,-0.63317 1.95433,-1.20248 2.97474,-1.73583 1.47672,-0.68357 2.93821,-1.39367 4.39448,-2.11896 1.79231,-0.87333 3.63817,-1.62803 5.45836,-2.43983 0.33593,-0.20885 1.38747,-0.52797 1.63704,-0.87262 0.0621,-0.0858 0.0379,-0.20851 0.0568,-0.31276 0,0 -0.27311,-0.18171 -0.27311,-0.18171 v 0 c -0.19322,-0.0114 -0.38697,-0.0525 -0.57965,-0.0342 -0.66118,0.0628 -1.2585,0.4893 -1.85497,0.72896 -1.80932,0.84148 -3.65342,1.60389 -5.46471,2.44098 -1.42959,0.71895 -2.80783,1.53727 -4.2636,2.20649 -1.03148,0.52227 -2.04921,1.05607 -2.98592,1.73962 -1.74622,1.13321 -3.51625,2.22825 -5.28335,3.32869 -1.80155,1.10247 -3.59523,2.2255 -5.28586,3.49431 -1.29987,0.99949 -2.59659,2.0026 -3.89181,3.00819 -1.5105,1.1058 -3.13465,2.04092 -4.78851,2.9151 -1.65264,0.87537 -3.29784,1.76339 -4.94766,2.64396 -1.88839,0.97556 -3.80145,1.9013 -5.68958,2.87729 -1.81735,0.89617 -3.61558,1.82887 -5.37029,2.8434 -1.8333,1.02072 -3.68638,2.00083 -5.58048,2.90448 -0.78871,0.41176 -0.57909,0.29754 -1.32674,0.70561 -0.16228,0.0886 -0.51321,0.0843 -0.48604,0.26719 0.16717,1.12523 0.7336,1.19008 0.64749,0.83077 0.063,-0.0889 0.14509,-0.16352 0.21118,-0.25021 0.26263,-0.2987 0.52878,-0.59672 0.76002,-0.92072 0.0566,-0.10029 0.0907,-0.12778 0.13125,-0.1905 0.0756,-0.18054 0.24557,-0.30992 0.34697,-0.47426 0.35215,-0.45298 0.68384,-0.92169 0.98566,-1.40993 0.22866,-0.42217 0.34695,-0.87302 0.50993,-1.32249 0.36777,-0.90682 0.72458,-1.8183 1.26656,-2.64144 0.5248,-0.88382 1.07591,-1.75492 1.7951,-2.49724 0.97398,-1.05753 1.94048,-2.12285 2.97568,-3.12201 1.43616,-1.44466 2.90197,-2.85969 4.3308,-4.31181 1.40456,-1.32211 2.83771,-2.61116 4.28205,-3.8897 0.98377,-0.8874 1.93249,-1.80301 2.5782,-2.97712 0.62908,-1.15355 1.20264,-2.33794 1.76122,-3.52692 0.40589,-0.89782 0.71911,-1.8402 1.25587,-2.67431 0.81127,-1.32009 1.79586,-2.51294 2.85438,-3.64315 1.27496,-1.30367 2.63962,-2.55538 4.24326,-3.44552 z" />
    <path
       style="fill:#000000;stroke-width:0.264583"
       id="path42"
       d="m 133.93935,131.94069 c -1.53911,1.32237 -2.99945,2.73405 -4.37563,4.22458 -1.32484,1.43636 -2.45646,3.02993 -3.57009,4.6308 -0.77981,1.09595 -1.51678,2.22439 -2.16046,3.40596 -0.37921,0.75169 -0.8094,1.47596 -1.18217,2.23084 -0.33964,0.65956 -0.66456,1.32612 -1.01949,1.97774 -0.30497,0.66478 -0.67719,1.29657 -0.98154,1.96118 -0.24907,0.54435 -0.49056,1.09226 -0.79031,1.61118 -0.22928,0.39535 -0.47734,0.77414 -0.76503,1.12963 -0.18855,0.19815 -0.35182,0.43512 -0.57608,0.59678 0.0192,0.0318 -0.0912,0.0174 -0.0854,0.0191 0.34172,0.0982 0.66964,0.28441 1.02503,0.29501 0.17507,0.005 0.30879,-0.16546 0.46182,-0.25067 0.18798,-0.10467 0.37412,-0.21263 0.56118,-0.31894 1.47795,-0.85683 2.92165,-1.77146 4.35028,-2.70776 1.2919,-0.76221 2.48376,-1.67482 3.72721,-2.51 0.97035,-0.73376 1.91307,-1.49936 2.89831,-2.21389 0.86961,-0.61313 1.63417,-1.34786 2.37338,-2.10842 0.71817,-0.69549 1.30962,-1.50177 1.91598,-2.29236 0.67523,-0.99986 1.49383,-1.88271 2.33388,-2.74357 0.54913,-0.52954 1.11341,-1.04417 1.67609,-1.5599 0.73752,-0.63258 1.43307,-1.30621 2.08964,-2.02189 0.22655,-0.28755 0.12023,-0.52294 0.0275,-0.83464 0,0 -0.11264,-0.0656 -0.11264,-0.0656 v 0 c -0.3143,0.0608 -0.60658,0.0778 -0.81923,0.35255 -0.6367,0.72145 -1.30703,1.41005 -2.03133,2.04476 -0.57405,0.50387 -1.13056,1.02695 -1.65973,1.57813 -0.83498,0.8699 -1.65383,1.75646 -2.33649,2.75447 -0.60948,0.77977 -1.2053,1.57351 -1.86405,2.31231 -0.72152,0.76982 -1.49626,1.48342 -2.35149,2.10453 -0.95329,0.74319 -1.87818,1.52194 -2.85189,2.23863 -1.2254,0.84848 -2.39899,1.77294 -3.68106,2.53764 -1.43096,0.93302 -2.87347,1.85026 -4.35812,2.69597 -0.18998,0.1037 -0.37885,0.20947 -0.56993,0.31112 -0.15581,0.0829 -0.45476,0.0666 -0.47069,0.2424 -0.0645,0.71173 0.36373,0.79851 0.40037,0.53667 0.1482,-0.23048 0.36349,-0.41396 0.52454,-0.63489 0.29384,-0.35881 0.53349,-0.74224 0.73859,-1.15845 0.29095,-0.52674 0.53451,-1.07555 0.77455,-1.62678 0.29916,-0.66701 0.66518,-1.30306 0.92926,-1.98653 0.34142,-0.6604 0.6943,-1.31789 0.96572,-2.01091 0.35633,-0.7626 0.74807,-1.50767 1.13275,-2.25621 0.64088,-1.18023 1.3177,-2.34242 2.09174,-3.44116 1.06675,-1.6253 2.14385,-3.25062 3.45467,-4.69424 1.36039,-1.49949 2.77698,-2.94778 4.33223,-4.24789 z" />
    <path
       style="fill:#000000;stroke-width:0.264583"
       id="path43"
       d="m 179.43933,146.70821 c -1.62254,1.09302 -3.25765,2.16489 -4.92234,3.19294 -1.2644,0.79397 -2.52729,1.5896 -3.76216,2.42889 -1.14535,0.76945 -2.27452,1.56229 -3.34173,2.4375 -1.06154,0.87808 -1.91014,1.96041 -2.74006,3.04996 -0.73262,1.1118 -1.6223,2.09875 -2.54593,3.05263 -0.65801,0.61655 -1.26958,1.29232 -1.97448,1.8572 -0.62949,0.54596 -1.33948,0.99543 -2.04376,1.43764 -0.79418,0.51685 -1.62697,0.97171 -2.47283,1.3976 -0.23589,0.072 -0.34914,0.23734 -0.53588,0.38265 -1.30649,0.92676 -2.7452,1.64306 -4.18733,2.33068 -0.61919,0.28208 -1.21884,0.60328 -1.82373,0.9139 -0.2704,0.18267 -0.50641,0.41554 -0.74718,0.63735 -0.27657,0.24329 -0.5494,0.48793 -0.79231,0.76555 -0.0384,0.0439 -0.16873,0.14728 -0.1118,0.13461 0.77678,-0.1729 1.53648,-0.41515 2.30472,-0.62273 0,0 -0.0937,-0.0614 -0.0937,-0.0614 v 0 c -0.4223,0.41633 -0.83904,0.83836 -1.26691,1.24897 -0.0409,0.0393 0.0693,-0.0898 0.10497,-0.13389 0.22917,-0.28259 0.49361,-0.52866 0.77132,-0.7632 0.24085,-0.21339 0.47502,-0.43678 0.75107,-0.60505 0.56883,-0.33606 1.16019,-0.63342 1.72626,-0.97446 1.39083,-0.78141 2.82612,-1.49396 4.15963,-2.37189 0.1701,-0.14447 0.30852,-0.28743 0.52072,-0.37063 0.82109,-0.45791 1.6304,-0.93698 2.42818,-1.43438 0.70554,-0.44106 1.44283,-0.85883 2.02198,-1.46532 0.67867,-0.59085 1.26892,-1.27887 1.91478,-1.90412 0.92373,-0.95663 1.81054,-1.94864 2.52177,-3.07779 0.81831,-1.09172 1.65651,-2.17248 2.7172,-3.0448 1.0417,-0.8957 2.15418,-1.69439 3.29517,-2.45904 1.21803,-0.84614 2.4587,-1.65916 3.70581,-2.46164 1.64887,-1.03384 3.27262,-2.10929 4.85606,-3.24102 z" />
    <path
       style="fill:#000000;stroke-width:0.264583"
       id="path44"
       d="m 148.50875,171.17833 c 0.76493,0.006 1.54561,0.0104 2.3044,-0.10688 0.38348,-0.0593 0.87094,-0.19234 1.24345,-0.28645 0.95549,-0.25301 1.89737,-0.56172 2.82052,-0.91484 0.65549,-0.22524 1.29481,-0.4926 1.92283,-0.78578 0.77539,-0.45224 1.56018,-0.88845 2.33064,-1.34921 0.78847,-0.50415 1.68473,-0.77368 2.56064,-1.07965 1.07752,-0.35063 2.14418,-0.73305 3.20517,-1.13066 1.54096,-0.58329 3.0841,-1.15892 4.64543,-1.68531 1.16662,-0.41079 2.3318,-0.82688 3.48747,-1.26772 1.23563,-0.38003 2.40307,-0.93416 3.56524,-1.49302 2.20133,-1.16523 4.32936,-2.46223 6.47777,-3.72102 1.22374,-0.73492 2.46387,-1.44127 3.69197,-2.16834 0.66547,-0.37365 1.30966,-0.7823 1.9701,-1.16412 0.36798,-0.23258 0.7396,-0.45638 1.10413,-0.69453 0.85785,-0.59658 1.69479,-1.22506 2.52153,-1.86406 0.63576,-0.56893 1.33191,-1.07238 1.89667,-1.71583 0.16977,-0.21077 0.0125,-0.28392 -0.16839,-0.41706 0,0 -0.64876,-0.41293 -0.64876,-0.41293 v 0 c -0.22123,-0.0846 -0.36778,-0.19147 -0.53576,0.013 -0.55524,0.63237 -1.19725,1.17285 -1.83817,1.71626 -0.83051,0.63434 -1.66306,1.27061 -2.54101,1.83834 -0.35669,0.23676 -0.71833,0.46514 -1.06823,0.71191 -0.63284,0.41336 -1.27796,0.80461 -1.92866,1.18918 -1.2075,0.73809 -2.41677,1.47249 -3.62333,2.21237 -2.1112,1.29043 -4.19471,2.64028 -6.40785,3.75156 -1.16361,0.5516 -2.33874,1.08176 -3.56531,1.47998 -1.15367,0.43752 -2.31671,0.84993 -3.47702,1.26939 -1.5576,0.54068 -3.0987,1.12501 -4.64875,1.68689 -1.06747,0.38847 -2.14347,0.75167 -3.21826,1.11909 -0.88362,0.30979 -1.78845,0.58443 -2.58105,1.09836 -0.76902,0.45734 -1.5553,0.88473 -2.32879,1.33416 -0.61278,0.28556 -1.21605,0.59506 -1.85383,0.82209 -0.90193,0.36526 -1.82918,0.67415 -2.76677,0.93336 -0.44445,0.11942 -0.75661,0.21602 -1.20864,0.28935 -0.73454,0.11918 -1.48486,0.11874 -2.22619,0.14785 z" />
    <text
       xml:space="preserve"
       style="font-size:7.7611px;text-align:center;text-anchor:middle;fill:url(#linearGradient133);fill-opacity:1;stroke-width:0.264583"
       x="96.551529"
       y="230.2554"
       id="text44"><tspan
         sodipodi:role="line"
         id="tspan44"
         style="font-weight:bold;fill:url(#linearGradient133);fill-opacity:1;stroke-width:0.264583"
         x="96.551529"
         y="230.2554">Structural</tspan><tspan
         sodipodi:role="line"
         style="font-weight:bold;fill:url(#linearGradient133);fill-opacity:1;stroke-width:0.264583"
         x="96.551529"
         y="239.95677"
         id="tspan45">Model</tspan></text>
    <text
       xml:space="preserve"
       style="font-size:7.7611px;text-align:center;text-anchor:middle;fill:url(#linearGradient134);fill-opacity:1;stroke-width:0.264583"
       x="97.104485"
       y="116.35128"
       id="text46"><tspan
         sodipodi:role="line"
         id="tspan46"
         style="font-weight:bold;fill:url(#linearGradient134);fill-opacity:1;stroke-width:0.264583"
         x="97.104485"
         y="116.35128">Functional Models</tspan></text>
    <path
       style="fill:#0980e5;fill-opacity:1;stroke-width:0.264583"
       id="path46"
       d="m 203.98812,152.94922 c -0.19618,-1.35434 -0.43505,-2.70066 -0.67505,-4.04763 -0.2142,-1.4254 -0.52692,-2.25976 -1.47091,-3.34705 -1.51341,-1.4658 -3.47333,-2.47157 -5.36115,-3.36058 -2.11582,-0.92779 -4.27261,-1.746 -6.46716,-2.46593 -2.7831,-0.80732 -5.60991,-1.45276 -8.40893,-2.20346 -2.89535,-0.78425 -5.789,-1.57927 -8.73138,-2.16824 -2.84515,-0.51665 -5.72584,-0.77906 -8.5857,-1.19484 -3.07037,-0.45292 -6.12635,-0.9966 -9.17501,-1.57648 -3.35155,-0.66053 -6.70581,-1.31263 -10.02681,-2.1151 -2.02212,-0.50258 -4.02718,-1.0721 -6.01144,-1.70759 -1.04131,-0.38598 -2.0808,-0.76801 -3.13173,-1.12792 -1.02601,-0.32527 -2.07368,-0.58314 -3.12929,-0.79234 -0.88206,-0.18346 -1.76868,-0.31011 -2.66814,-0.36512 -0.98317,-0.0482 -1.96187,-0.15803 -2.94405,-0.22598 -0.77404,-0.0508 -1.55028,-0.0558 -2.32571,-0.0579 -0.81842,-0.0244 -1.63019,0.0294 -2.44381,0.10972 -0.49665,0.0498 -0.9937,0.0949 -1.49298,0.10197 -0.75494,0.0286 -1.50577,-0.004 -2.25822,-0.0617 -1.61892,-0.20707 -3.2251,-0.50991 -4.83504,-0.77817 -1.13237,-0.22626 -2.29723,-0.28701 -3.41493,-0.58255 -0.59571,-0.12406 -1.15534,-0.35805 -1.72744,-0.55531 -0.93252,-0.28099 -1.83599,-0.65379 -2.70079,-1.10031 -0.16494,-0.0916 -0.65833,-0.3688 -0.49483,-0.27468 0.25348,0.14592 0.49945,0.30709 0.76481,0.4301 0.14501,0.0672 -0.26888,-0.17288 -0.4017,-0.26177 -0.41167,-0.2755 -0.80648,-0.56815 -1.19715,-0.87233 -0.75793,-0.61558 -1.43361,-1.3307 -2.06941,-2.0701 -0.26107,-0.32507 -0.50034,-0.66555 -0.81636,-0.94036 -1.28769,-1.06327 -1.30082,-1.07317 -1.841087,-0.20466 -0.584885,1.07202 -1.381633,2.00066 -2.164283,2.93017 -0.568532,0.57763 -1.080196,1.23088 -1.738765,1.71176 -0.327181,0.1614 -0.690716,0.22887 -1.034799,0.35336 -0.51458,0.17455 -1.056889,0.23119 -1.589005,0.33022 -0.738434,0.13148 -1.491033,0.14132 -2.238788,0.16044 -1.734892,0.0889 -3.460671,-0.0908 -5.182248,-0.27953 -1.354879,-0.14325 -2.708304,-0.30279 -4.070123,-0.35953 -1.059923,-0.0197 -2.115788,-0.0202 -3.171695,-0.12079 -2.286294,-0.31236 -4.584639,-0.36137 -6.888557,-0.33851 -3.688781,0.0975 -7.368185,0.39709 -11.038898,0.7629 -2.928413,0.31693 -5.804429,0.95847 -8.692104,1.51687 -3.069826,0.54763 -6.170086,0.8934 -9.2699,1.21785 -3.490917,0.29416 -6.955374,0.81097 -10.423948,1.28932 -2.004454,0.30295 -4.021235,0.56002 -5.998439,1.01589 -1.144456,0.24542 -2.261202,0.59999 -3.381543,0.935 -2.072574,0.55664 -4.142162,1.12769 -6.219812,1.66563 -1.828595,0.41565 -3.585665,1.06282 -5.333255,1.7312 -1.129023,0.45761 -2.2949511,0.81558 -3.4197594,1.28292 -0.4713909,0.15794 -0.8913897,0.38924 -1.2469487,0.73458 -0.2555655,0.25176 -0.4555516,0.55234 -0.6440162,0.85611 -0.2537407,0.33078 -0.532071,0.64399 -0.7539072,0.99821 -0.2226789,0.31112 -0.4497776,0.61902 -0.6541714,0.94268 -0.1842696,0.25063 -0.3132431,0.52058 -0.4348242,0.80413 -0.1392563,0.30656 -0.3080956,0.59795 -0.5276289,0.85383 -0.1952805,0.22531 -0.4375417,0.38736 -0.6883551,0.54302 -0.2593218,0.13865 -0.3322751,0.38889 -0.365107,0.66178 -0.024921,0.28039 -0.019947,0.56216 -0.026548,0.84328 -0.020894,0.17223 0.047885,0.16047 0.217854,0.25083 0.1113009,0.064 0.2226018,0.12808 0.3339028,0.19212 0,0 0.071313,0.0363 0.071313,0.0363 v 0 c 0.1111356,0.0458 0.2222711,0.0916 0.3334067,0.13742 0.1821117,0.0902 0.2358583,0.16977 0.2096225,-0.0238 -0.011316,-0.27611 -0.003,-0.55307 0.018391,-0.82849 0.03159,-0.26119 0.099228,-0.4136 0.3436332,-0.5392 0.2557909,-0.17096 0.5125047,-0.33473 0.7034982,-0.58287 0.2151925,-0.27245 0.3905152,-0.57785 0.5316752,-0.89468 0.1209011,-0.27772 0.2626077,-0.53116 0.4358229,-0.78062 0.2003738,-0.32583 0.4307393,-0.63105 0.6535669,-0.9416 0.2270406,-0.35106 0.501273,-0.66721 0.750202,-1.00228 0.1818192,-0.29452 0.3679134,-0.59226 0.6244992,-0.82821 0.3498762,-0.32722 0.7668781,-0.53533 1.218507,-0.69425 1.1194545,-0.45706 2.2652375,-0.84487 3.3845555,-1.30284 1.739276,-0.67329 3.502604,-1.27812 5.314984,-1.72636 2.0867,-0.55219 4.172105,-1.10701 6.263888,-1.63965 1.126552,-0.31859 2.247386,-0.66001 3.389215,-0.9213 1.94836,-0.46733 3.931381,-0.7622 5.910977,-1.06261 3.458533,-0.49578 6.914999,-1.01317 10.399178,-1.30105 3.112762,-0.30556 6.226336,-0.64357 9.304742,-1.20701 2.875992,-0.56186 5.742051,-1.19676 8.657498,-1.52748 3.672051,-0.37631 7.354241,-0.67502 11.046544,-0.74318 2.340142,-0.006 4.668761,0.0971 6.987876,0.42801 1.058534,0.10504 2.116579,0.0957 3.179302,0.11759 1.343573,0.0654 2.683013,0.19339 4.020648,0.33347 1.73655,0.18567 3.474966,0.36249 5.224613,0.28942 0.749824,-0.011 1.4975,-0.0364 2.234404,-0.19052 0.537395,-0.0993 1.085733,-0.15485 1.601544,-0.34544 0.355576,-0.11541 0.733285,-0.18618 1.048112,-0.39709 0.630759,-0.51995 1.120932,-1.19245 1.692561,-1.77277 0.776806,-0.94231 1.569899,-1.87538 2.194249,-2.92936 0.006,-0.009 0.23113,-0.34814 0.29196,-0.4042 0.014,-0.0129 0.1183,0.0345 0.10655,0.0273 -0.72695,-0.44285 -1.456119,-0.85011 -1.02712,-0.61019 0.34902,0.24435 0.58948,0.598 0.85444,0.92486 0.638,0.74348 1.31283,1.46807 2.06384,2.09812 1.16839,0.92782 2.43181,1.71742 3.76398,2.39412 0.87774,0.43103 1.7857,0.79817 2.71897,1.09168 0.5629,0.20318 1.12766,0.39657 1.71281,0.52798 1.10045,0.26862 2.24508,0.30208 3.35542,0.52316 1.62569,0.26989 3.24284,0.60384 4.87998,0.79672 0.75397,0.055 1.50788,0.0784 2.26379,0.0473 0.49147,-0.0282 0.98157,-0.0727 1.47068,-0.12859 0.81365,-0.0835 1.62692,-0.12935 2.44537,-0.0914 0.77188,0.006 1.54432,0.01 2.31491,0.0603 0.98247,0.0667 1.96082,0.1842 2.94488,0.22693 0.90022,0.0718 1.78863,0.20205 2.67231,0.38958 1.04711,0.21429 2.08804,0.46745 3.10548,0.79639 1.04448,0.36144 2.07713,0.75029 3.12034,1.11416 1.94762,0.58951 3.91359,1.1183 5.8897,1.6035 3.30666,0.77664 6.6438,1.40928 9.97512,2.06962 3.04955,0.58851 6.11134,1.11368 9.18261,1.57613 2.85878,0.41638 5.74263,0.65347 8.58232,1.19965 2.93749,0.59458 5.82879,1.38347 8.72027,2.16827 2.80405,0.74689 5.63148,1.40686 8.41756,2.21787 2.19451,0.72407 4.34906,1.55416 6.46584,2.48233 0.31008,0.14814 0.61438,0.30903 0.93024,0.4444 0.0295,0.0126 -0.0911,-0.0881 -0.063,-0.0727 0.93391,0.50906 1.82628,1.11892 2.5869,1.86467 0.15136,0.15601 0.31499,0.30098 0.45408,0.46803 0.67754,0.81372 0.92892,1.83743 1.11446,2.85528 0.24337,1.34151 0.50326,2.68137 0.65888,4.03673 z" />
    <text
       xml:space="preserve"
       style="font-size:7.7611px;text-align:center;text-anchor:middle;fill:#0980e5;fill-opacity:1;stroke-width:0.264583"
       x="242.79958"
       y="140.37793"
       id="text92"><tspan
         sodipodi:role="line"
         id="tspan92"
         style="font-weight:bold;fill:#000000;fill-opacity:1;stroke-width:0.264583"
         x="242.79958"
         y="140.37793">User's</tspan><tspan
         sodipodi:role="line"
         style="font-weight:bold;fill:#000000;fill-opacity:1;stroke-width:0.264583"
         x="242.79958"
         y="150.0793"
         id="tspan93">Tasks</tspan></text>
    <rect
       style="fill:none;fill-opacity:1;stroke:#000000;stroke-width:0.868;stroke-dasharray:none;stroke-opacity:1"
       id="rect93"
       width="49.161957"
       height="26.470123"
       x="218.55223"
       y="129.70126" />
    <path
       style="fill:#0980e5;fill-opacity:1;stroke:none;stroke-width:0.868;stroke-dasharray:none;stroke-opacity:1"
       id="path97"
       d="m 131.07922,131.75158 c 0.23747,-0.37935 0.53874,-0.70641 0.8555,-1.01948 0.2531,-0.27044 0.50842,-0.54262 0.73941,-0.8326 0.14026,-0.16898 0.26021,-0.35403 0.41675,-0.50884 0.20056,-0.16227 0.35089,-0.37436 0.54456,-0.54312 0.0371,-0.0643 0.25142,-0.20659 0.27515,-0.26616 0.005,-0.0128 -0.003,-0.0274 -0.004,-0.0411 -0.0133,-0.0227 -0.0717,-0.12242 -0.0719,-0.1256 -0.003,-0.0338 0.0232,-0.0636 0.0347,-0.0955 0.018,-0.0499 0.0355,-0.10009 0.054,-0.14989 0.0863,-0.23315 0.0764,-0.20271 0.17676,-0.44809 0.17814,-0.25348 0.39255,-0.55535 0.44983,-0.86876 -0.031,-0.0272 -0.0619,-0.0544 -0.0929,-0.0815 0,0 -0.25292,-0.14492 -0.25292,-0.14492 v 0 c -0.0402,-0.01 -0.0804,-0.0197 -0.12066,-0.0296 -0.046,0.0971 -0.0672,0.19926 -0.0905,0.30424 -0.0512,0.23114 -0.097,0.46419 -0.10647,0.70151 -0.10478,0.27989 -0.0659,0.19418 -0.18318,0.44381 -0.0224,0.0476 -0.0462,0.0944 -0.0686,0.14196 -0.014,0.0297 -0.0133,0.0718 -0.0409,0.0897 -0.008,0.005 -0.12022,-0.0113 -0.14192,-0.0143 -0.0168,0.003 -0.0353,-2.5e-4 -0.0503,0.008 -0.0679,0.0351 -0.1806,0.235 -0.25903,0.27214 -0.18134,0.18063 -0.33864,0.38514 -0.53689,0.54902 -0.16325,0.15418 -0.26185,0.35217 -0.38314,0.53895 -0.21573,0.29771 -0.45066,0.58117 -0.70549,0.84638 -0.29843,0.3315 -0.59936,0.66058 -0.83999,1.03845 z" />
    <path
       style="fill:#0980e5;fill-opacity:1;stroke:none;stroke-width:0.868;stroke-dasharray:none;stroke-opacity:1"
       id="path98"
       d="m 143.88944,137.2016 c 0.33969,-0.26216 0.69348,-0.50573 1.04282,-0.7549 0.24101,-0.19598 0.46542,-0.40782 0.68101,-0.63074 0.24187,-0.26871 0.49814,-0.52518 0.73182,-0.80094 0.28498,-0.39998 0.59601,-0.77432 0.94052,-1.12408 0.21164,-0.20575 0.39078,-0.44691 0.62133,-0.63265 0.11688,-0.0748 0.18602,-0.19594 0.25489,-0.31251 0.0582,-0.0699 0.10629,-0.14881 0.16759,-0.21605 0.0108,-0.0119 0.0261,-0.0202 0.034,-0.0343 0.0149,-0.0267 0.0221,-0.0571 0.0331,-0.0856 0.033,-0.21904 0.0883,-0.43318 0.14462,-0.64708 0.043,-0.10795 0.0447,-0.22571 0.0826,-0.33535 -0.0101,-0.0148 0.0368,-0.0546 0.0301,-0.0698 -0.0255,-0.0573 -0.20966,-0.14158 -0.27253,-0.18051 0,0 -0.0815,-0.0473 -0.0815,-0.0473 v 0 c -0.0578,-0.0301 -0.24435,-0.15168 -0.29485,-0.13694 -0.017,0.005 -0.0148,0.0721 -0.0277,0.0799 -0.0375,0.13108 -0.0527,0.23424 -0.0349,0.37194 -0.0192,0.22149 -0.0379,0.44419 -0.0958,0.65971 -0.0438,0.12427 -0.15368,0.21623 -0.21405,0.33433 -0.0671,0.10894 -0.13925,0.21782 -0.23681,0.30214 -0.20999,0.20689 -0.38912,0.44077 -0.58462,0.66115 -0.32692,0.36366 -0.65184,0.73069 -0.93369,1.13115 -0.23558,0.27056 -0.45604,0.55318 -0.68912,0.82499 -0.19834,0.23172 -0.41758,0.44212 -0.6407,0.64996 -0.0481,0.0556 -0.0923,0.11491 -0.14439,0.16677 -0.24725,0.24596 -0.5555,0.42139 -0.8388,0.62034 z" />
    <path
       style="fill:#0980e5;fill-opacity:1;stroke:none;stroke-width:0.868;stroke-dasharray:none;stroke-opacity:1"
       id="path99"
       d="m 175.41451,145.50814 c 0.32944,-0.32688 0.7203,-0.57991 1.1026,-0.83902 0.40145,-0.28204 0.7973,-0.57145 1.1853,-0.8717 0.31955,-0.29209 0.64656,-0.57347 0.99923,-0.82487 0.32496,-0.2268 0.61624,-0.49604 0.92666,-0.74166 0.38743,-0.29954 0.78356,-0.58709 1.18843,-0.86255 0.30215,-0.21967 0.64174,-0.37929 0.95394,-0.58245 0.14433,-0.0939 0.28293,-0.19638 0.42442,-0.29454 0.38945,-0.28811 0.78576,-0.56636 1.18117,-0.84617 0.29337,-0.20704 0.57131,-0.43186 0.87184,-0.62899 0.10831,-0.0845 0.23574,-0.13756 0.3532,-0.20627 0.0653,-0.0382 0.1073,-0.0813 0.17962,-0.10464 0.15985,-0.0818 0.0277,-0.0543 -0.23717,-0.15497 0,0 0.0695,0.0396 0.0695,0.0396 v 0 c -0.25615,-0.21641 -0.2126,-0.30818 -0.27465,-0.15985 -0.0414,0.13559 -0.35687,0.24591 -0.45251,0.3552 -0.29019,0.21116 -0.58734,0.41265 -0.87277,0.63036 -0.37503,0.29761 -0.74792,0.59778 -1.14265,0.86954 -0.43363,0.32011 -0.88805,0.61022 -1.34392,0.89752 -0.41229,0.26921 -0.82977,0.53222 -1.20122,0.85769 -0.31262,0.2441 -0.62155,0.49283 -0.93572,0.73497 -0.33943,0.26793 -0.66933,0.5471 -0.9997,0.82609 -0.36957,0.31039 -0.73702,0.62558 -1.13353,0.90109 -0.21779,0.14628 -0.44374,0.28262 -0.65464,0.43885 -0.15482,0.1147 -0.16981,0.13919 -0.32006,0.25985 -0.053,0.0426 -0.1077,0.0831 -0.16156,0.12472 z" />
    <path
       style="fill:#0980e5;fill-opacity:1;stroke:none;stroke-width:0.868;stroke-dasharray:none;stroke-opacity:1"
       id="path100"
       d="m 195.06876,152.57618 c 0.51551,-0.10932 0.94487,-0.27909 1.40186,-0.53758 0.4256,-0.26261 0.8101,-0.58703 1.14271,-0.95962 0.27197,-0.3254 0.53495,-0.65748 0.80726,-0.98267 0.13955,-0.16067 0.27975,-0.31656 0.37933,-0.50532 0.13605,-0.22206 0.2723,-0.44335 0.41422,-0.66184 0.14967,-0.3169 0.32855,-0.61771 0.51102,-0.91653 0.20776,-0.34535 0.39493,-0.70133 0.60218,-1.04734 0.35397,-0.50781 0.78187,-0.95652 1.226,-1.3853 0.0727,-0.10297 0.22622,-0.14229 0.28275,-0.25704 0.14437,-0.19306 0.33163,0.0652 -0.53157,-0.25867 0,0 0.1444,0.1052 0.1444,0.1052 v 0 c -0.0938,-0.0699 -0.18771,-0.13984 -0.28157,-0.20976 0.0143,-0.0127 0.0327,0.002 0.0394,0.0165 -0.0121,0.11662 -0.11066,0.19533 -0.17363,0.28788 -0.3892,0.47698 -0.78654,0.94771 -1.1621,1.43545 -0.22233,0.3384 -0.40698,0.69502 -0.58858,1.05642 -0.17815,0.30141 -0.34821,0.60747 -0.51707,0.91388 -0.12014,0.23243 -0.23921,0.46444 -0.38445,0.68247 -0.0893,0.18749 -0.19357,0.36456 -0.33144,0.52202 -0.25803,0.33408 -0.51313,0.67008 -0.77948,0.99739 -0.14815,0.1733 -0.29293,0.3579 -0.45927,0.51447 -0.18982,0.17866 -0.40983,0.32146 -0.62362,0.46869 -0.41629,0.25772 -0.87202,0.46491 -1.35606,0.55405 z" />
    <path
       style="fill:#0980e5;fill-opacity:1;stroke:none;stroke-width:0.868;stroke-dasharray:none;stroke-opacity:1"
       id="path101"
       d="m 81.36425,127.87257 c 0.242631,-0.0725 0.488503,-0.19055 0.680445,-0.36015 0.0918,-0.0811 0.207481,-0.2295 0.28302,-0.32098 0.282638,-0.4273 0.512386,-0.88272 0.740251,-1.34034 0.112829,-0.21672 0.185343,-0.44868 0.289361,-0.67045 0.168545,-0.30226 0.300313,-0.62364 0.411412,-0.95092 0.0089,-0.0205 0.101719,-0.28957 0.09224,-0.29915 -0.05201,-0.0526 -0.117215,-0.0902 -0.175821,-0.13533 -0.07352,-0.0377 -0.147034,-0.0754 -0.220551,-0.11311 0,0 -0.163661,-0.063 -0.163661,-0.063 v 0 c -0.0377,-0.0166 -0.0754,-0.0332 -0.113093,-0.0497 -0.04713,-0.0213 -0.09074,-0.0534 -0.141378,-0.064 -0.01124,-0.002 1.93e-4,0.023 -2.64e-4,0.0345 -0.0041,0.094 -0.01558,0.18765 -0.03124,0.28042 -0.0695,0.34331 -0.175694,0.67268 -0.308284,0.99684 -0.07835,0.2316 -0.179459,0.4537 -0.257522,0.68544 -0.18519,0.47527 -0.311203,0.97993 -0.579623,1.41799 -0.09974,0.1592 -0.111045,0.20157 -0.244274,0.32674 -0.137527,0.1292 -0.307774,0.20041 -0.458962,0.30794 -0.0432,0.0307 -0.0792,0.0705 -0.1188,0.10573 z" />
    <path
       style="fill:#0980e5;fill-opacity:1;stroke:none;stroke-width:0.868;stroke-dasharray:none;stroke-opacity:1"
       id="path102"
       d="m 72.621729,129.32005 c -0.266271,-0.26404 -0.535734,-0.52635 -0.753941,-0.83229 -0.145502,-0.21668 -0.264673,-0.44587 -0.327961,-0.69929 -0.0411,-0.24748 -0.04398,-0.49887 -0.036,-0.74899 0.01482,-0.25646 0.0081,-0.51287 -1.03e-4,-0.76939 -1.3e-4,-0.31787 0.0024,-0.63623 0.01717,-0.95379 0.0064,-0.19118 -0.0089,-0.3814 -0.01632,-0.57216 -0.01566,-0.0906 -0.07924,-0.0993 -0.162095,-0.14874 0,0 -0.629433,-0.30754 -0.629433,-0.30754 v 0 c -0.06847,-0.0263 -0.148627,-0.0937 -0.138766,-10e-4 0.04811,0.19896 0.08522,0.4019 0.112509,0.60441 0.01437,0.32314 0.01717,0.64701 0.01587,0.97042 -0.0096,0.25523 -0.01818,0.51041 -0.007,0.76578 0.0068,0.25407 -0.01384,0.50932 0.0186,0.76177 0.04797,0.2728 0.190529,0.50759 0.335155,0.74041 0.03321,0.0534 0.0627,0.10939 0.09964,0.16033 0.180933,0.24951 0.427707,0.44638 0.627134,0.67982 z" />
    <path
       style="fill:#0980e5;fill-opacity:1;stroke:none;stroke-width:0.868;stroke-dasharray:none;stroke-opacity:1"
       id="path103"
       d="m 58.817126,132.79501 c -0.109742,-0.39513 -0.160243,-0.80005 -0.149903,-1.20932 0.0033,-0.23293 0.0024,-0.46672 0.07271,-0.69083 0.02713,-0.0949 0.04969,-0.19034 0.058,-0.28869 -7.93e-4,-0.0861 0.02503,-0.1582 0.06248,-0.23403 0.118067,-0.15428 0.198591,-0.33283 0.300154,-0.49814 0.104828,-0.16158 0.20447,-0.32158 0.260905,-0.50632 0.05777,-0.27424 0.07894,-0.55507 0.082,-0.8348 -0.01754,-0.47791 0.03898,-0.95413 0.09371,-1.42799 0.03794,-0.31476 0.06294,-0.63124 0.06769,-0.94829 7.94e-4,-0.23423 0.0049,-0.46839 0.0035,-0.70263 -7.94e-4,-0.15829 -0.02074,-0.31563 -0.02943,-0.47343 -0.003,-0.0541 0.01778,-0.11301 -0.0044,-0.16243 -0.03058,-0.0682 -0.09675,-0.11387 -0.145118,-0.1708 0,0 -0.367557,-0.18725 -0.367557,-0.18725 v 0 c -0.04832,0.008 -0.113866,-0.0148 -0.144976,0.023 -0.03352,0.0407 -0.0013,0.10545 -0.0042,0.15808 -0.0084,0.14796 -0.02877,0.29546 -0.02851,0.44399 -5.3e-4,0.23423 0.0051,0.46841 -1.06e-4,0.70261 -0.0067,0.31995 -0.01196,0.63989 -0.03362,0.95933 -0.03251,0.47425 -0.09688,0.94546 -0.120269,1.42014 -0.01085,0.27123 -0.0117,0.54573 -0.07891,0.8107 -0.05828,0.17628 -0.151064,0.33551 -0.235027,0.50055 -0.09488,0.17082 -0.188619,0.34384 -0.315246,0.49348 -0.04534,0.0808 -0.08986,0.16509 -0.08342,0.26025 -0.0067,0.0976 -0.01593,0.19522 -0.03119,0.29184 -0.0254,0.24475 -0.03477,0.48894 -0.02318,0.73513 0.02503,0.40953 0.07329,0.81571 0.14124,1.22051 z" />
    <path
       style="fill:#0980e5;fill-opacity:1;stroke:none;stroke-width:0.868;stroke-dasharray:none;stroke-opacity:1"
       id="path104"
       d="m 52.831925,133.00549 c -0.234717,-0.17145 -0.444143,-0.3713 -0.632333,-0.59204 -0.06353,-0.0768 -0.121412,-0.15839 -0.144404,-0.2565 -0.009,-0.0703 -0.01109,-0.14194 -0.0077,-0.21273 0.01987,-0.10591 -0.02069,-0.20501 -0.03588,-0.30876 -0.0021,-0.1213 -0.02029,-0.23826 -0.04325,-0.35701 -0.04197,-0.13603 -0.143185,-0.25228 -0.214979,-0.37548 -0.08083,-0.16353 -0.160568,-0.32857 -0.233328,-0.49601 -0.05634,-0.14061 -0.05897,-0.29458 -0.06263,-0.44398 -0.02535,-0.38213 -0.02225,-0.76412 -0.015,-1.14675 0.0077,-0.20789 0.0061,-0.41665 0.02888,-0.62366 -0.01254,-0.0696 0.03839,-0.0695 0.05603,-0.12401 0.0046,-0.18116 5.29e-4,-0.36241 -5.29e-4,-0.54366 -0.01974,-0.2133 -0.0104,-0.43101 -0.09486,-0.63111 -0.100062,-0.16562 -0.335118,-0.23855 -0.495892,-0.31645 0,0 -0.07311,-0.0325 -0.07311,-0.0325 v 0 c -0.08535,-0.0357 -0.169953,-0.0733 -0.256043,-0.10721 -0.02328,-0.009 -0.127328,-0.0517 -0.148077,-0.0336 -0.0087,0.008 0.0021,0.023 0.003,0.0345 0.04515,0.19776 0.106987,0.39125 0.10518,0.59734 -0.0011,0.18106 -0.0052,0.36211 -5.29e-4,0.54309 0.0158,0.0649 0.06402,0.11025 0.05594,0.18097 0.02117,0.21671 0.0209,0.43477 0.02733,0.65225 0.006,0.37811 0.0073,0.75546 -0.01569,1.13304 0.0016,0.15594 -0.0035,0.31359 0.03401,0.4663 0.06087,0.17918 0.176651,0.33475 0.23981,0.51387 0.067,0.12338 0.127079,0.25429 0.22611,0.35617 0.04453,0.12458 0.102659,0.24528 0.111636,0.37935 0.01881,0.10182 0.04872,0.19931 0.05462,0.30129 0.0016,0.0752 -0.01035,0.15023 -0.0034,0.22526 0.01611,0.11808 0.05833,0.21918 0.145364,0.30492 0.186815,0.22154 0.389687,0.42764 0.620398,0.60435 z" />
    <circle
       id="path105"
       style="fill:#0980e5;stroke:#000000;stroke-width:0.264583"
       cx="35.787872"
       cy="140.8705"
       r="0.034370251" />
    <path
       style="fill:#0980e5;fill-opacity:1;stroke:none;stroke-width:0.868;stroke-dasharray:none;stroke-opacity:1"
       id="path106"
       d="m 33.828439,138.79841 c 0.188362,0.10707 0.373158,0.22066 0.565087,0.32119 0.06743,0.0353 -0.128482,-0.0818 -0.190969,-0.12524 -0.193042,-0.1343 -0.379703,-0.28043 -0.564131,-0.42627 -0.223292,-0.17938 -0.374745,-0.42576 -0.523073,-0.66669 -0.145323,-0.26942 -0.301326,-0.53279 -0.453081,-0.79858 -0.06686,-0.12519 -0.152781,-0.23635 -0.243215,-0.34481 -0.102516,-0.15341 -0.141534,-0.33897 -0.193191,-0.51385 -0.08454,-0.3181 -0.07936,-0.65086 -0.102357,-0.97709 -0.01201,-0.39514 -0.08559,-0.77909 -0.202173,-1.15547 -0.119182,-0.37109 -0.328459,-0.70221 -0.509432,-1.04474 -0.179879,-0.33814 -0.361759,-0.67515 -0.543663,-1.01221 -0.143041,-0.22943 -0.187671,-0.48794 -0.210664,-0.75221 -0.02214,-0.19219 -0.05827,-0.38179 -0.07016,-0.57508 -0.0218,-0.25473 -0.0081,-0.50876 0.01516,-0.76264 0.0077,-0.0585 0.03027,-0.23659 0.04198,-0.29553 0.02016,-0.10145 0.09474,-0.21541 0.03984,-0.31864 -0.02236,-0.042 -0.06029,-0.0737 -0.09043,-0.11049 -0.112834,-0.0818 -0.0587,-0.06 -0.152638,-0.0856 0,0 0.07399,0.0304 0.07399,0.0304 v 0 c -0.264052,-0.20199 -0.123286,-0.11939 -0.420968,-0.25006 -0.08831,-0.01 -0.201576,-0.0573 -0.272534,0.0324 -0.05463,0.0691 -0.08164,0.44041 -0.104939,0.53628 -0.02228,0.25731 -0.05736,0.51217 -0.03178,0.77113 0.0123,0.19719 0.03201,0.39136 0.08106,0.58347 0.02437,0.27207 0.05784,0.54718 0.191428,0.7907 0.19965,0.3305 0.379656,0.67178 0.55739,1.01443 0.178779,0.34251 0.383191,0.67307 0.524039,1.03381 0.129535,0.36697 0.196342,0.74964 0.222118,1.138 0.02151,0.32798 0.01468,0.65974 0.0724,0.98424 0.04637,0.18161 0.09965,0.3617 0.160063,0.53918 0.07832,0.11904 0.188957,0.21493 0.258643,0.341 0.16574,0.26431 0.334976,0.52642 0.474083,0.80633 0.137464,0.25243 0.294688,0.50183 0.506021,0.69909 0.553125,0.44076 1.166918,0.79842 1.781471,1.1452 z" />
    <path
       style="fill:#0980e5;fill-opacity:1;stroke:none;stroke-width:0.868;stroke-dasharray:none;stroke-opacity:1"
       id="path107"
       d="m 30.558798,140.49993 c -0.202269,-0.25904 -0.363286,-0.54609 -0.515067,-0.83653 -0.06674,-0.13446 -0.125431,-0.27082 -0.211236,-0.39447 -0.04992,-0.0789 -0.110135,-0.15037 -0.149235,-0.23533 -0.05648,-0.0942 -0.08019,-0.19704 -0.09533,-0.30408 -0.0093,-0.22975 -0.07166,-0.44693 -0.133393,-0.66735 -0.113948,-0.36677 -0.287258,-0.70874 -0.463039,-1.04863 -0.165592,-0.31269 -0.360413,-0.6089 -0.553908,-0.90482 -0.146171,-0.21899 -0.309388,-0.42471 -0.429326,-0.65971 -0.147786,-0.29548 -0.227997,-0.61507 -0.309171,-0.93332 -0.116893,-0.38878 -0.161205,-0.79158 -0.213616,-1.1926 -0.05587,-0.36194 -0.124545,-0.72105 -0.262917,-1.06111 -0.08791,-0.19894 -0.212161,-0.37815 -0.316809,-0.56771 -0.08304,-0.11588 -0.140632,-0.24366 -0.187108,-0.37779 -0.07125,-0.1542 -0.103659,-0.31519 -0.119042,-0.48331 -0.0046,-0.13199 -0.03698,-0.26213 -0.0338,-0.3945 0.05131,-0.16066 -0.1011,-0.20224 -0.160386,-0.3264 -0.007,-0.0201 -0.0141,-0.0403 -0.02115,-0.0604 0,0 -0.06566,-0.0457 -0.06566,-0.0457 v 0 c -0.04312,-0.0128 -0.08624,-0.0255 -0.129361,-0.0383 -0.06528,-0.008 -0.289956,-0.0634 -0.343906,-0.0181 -0.01143,0.01 -0.02743,0.0988 -0.02921,0.10734 0.0042,0.12763 -0.01774,0.2555 -0.004,0.38304 0.01306,0.16893 0.01654,0.34392 0.09813,0.49673 0.04309,0.13304 0.08884,0.27558 0.170067,0.3891 0.111248,0.19121 0.245881,0.36857 0.342198,0.56881 0.157312,0.33864 0.255954,0.6972 0.322513,1.06444 0.06465,0.39699 0.08291,0.8022 0.186568,1.19129 0.09618,0.31795 0.178742,0.64068 0.30634,0.94812 0.108453,0.24436 0.266803,0.45542 0.424474,0.67035 0.200324,0.3015 0.404516,0.60051 0.588364,0.9125 0.194617,0.33995 0.377799,0.68488 0.512702,1.05378 0.07263,0.22182 0.161647,0.4484 0.185057,0.68049 0.01852,0.11385 0.05285,0.22819 0.103333,0.33178 0.01863,0.0353 0.02863,0.0749 0.04879,0.10941 0.02993,0.0512 0.09356,0.0847 0.116147,0.14254 0.0865,0.13559 0.193836,0.25618 0.25395,0.40817 0.175987,0.28905 0.347527,0.58085 0.54134,0.85862 z" />
    <path
       style="fill:#0980e5;fill-opacity:1;stroke:none;stroke-width:0.868;stroke-dasharray:none;stroke-opacity:1"
       id="path108"
       d="m 18.98686,144.0949 c -0.342556,-0.18842 -0.651177,-0.42054 -0.93151,-0.69167 -0.184149,-0.19795 -0.351377,-0.41075 -0.521474,-0.62069 -0.207787,-0.24192 -0.42179,-0.47709 -0.648536,-0.70129 -0.158624,-0.1557 -0.330715,-0.29241 -0.479382,-0.45847 -0.126593,-0.15612 -0.231265,-0.32627 -0.328839,-0.5016 -0.09245,-0.1788 -0.147101,-0.37321 -0.220294,-0.55996 -0.09664,-0.25682 -0.188113,-0.51555 -0.28409,-0.77278 -0.124523,-0.33586 -0.304267,-0.64662 -0.47803,-0.95861 -0.160169,-0.30139 -0.324657,-0.60058 -0.501415,-0.89257 -0.235709,-0.3793 -0.454574,-0.7668 -0.647755,-1.16937 -0.159025,-0.29629 -0.285479,-0.60764 -0.427156,-0.91214 -0.160183,-0.31258 -0.316013,-0.62534 -0.451299,-0.94966 -0.09755,-0.2408 -0.197189,-0.48084 -0.278674,-0.72766 -0.01487,-0.0768 -0.06193,-0.1084 -0.10346,-0.17863 -0.147032,-0.24865 0.130822,0.0434 -0.282967,-0.30502 0,0 -0.269907,-0.13706 -0.269907,-0.13706 v 0 c -0.07756,-0.0127 -0.15446,-0.0457 -0.232677,-0.038 -0.0258,0.003 -0.02481,0.0463 -0.04279,0.0649 -0.06945,0.0721 -0.09599,0.0327 -0.04656,0.13952 0.107255,0.24882 0.206604,0.50096 0.317885,0.74805 0.126483,0.32293 0.262122,0.63987 0.426769,0.94543 0.150443,0.30765 0.280493,0.62483 0.449263,0.92338 0.200108,0.40007 0.41,0.7943 0.643389,1.17621 0.171293,0.2979 0.330957,0.60174 0.510336,0.895 0.180246,0.30688 0.351671,0.62258 0.493728,0.94834 0.100089,0.25684 0.206561,0.51021 0.28631,0.77445 0.0743,0.19352 0.1542,0.38447 0.229522,0.57757 0.103538,0.20102 0.223231,0.39244 0.386854,0.55096 0.163786,0.18924 0.359318,0.33899 0.551793,0.49743 0.243747,0.22114 0.472135,0.45584 0.686516,0.70576 0.179769,0.21771 0.351762,0.44078 0.549697,0.64251 0.275795,0.26621 0.566182,0.51111 0.903669,0.69753 z" />
    <path
       style="fill:#0980e5;fill-opacity:1;stroke:none;stroke-width:0.868;stroke-dasharray:none;stroke-opacity:1"
       id="path109"
       d="m 11.713175,145.89153 c -0.339337,-0.18243 -0.650528,-0.40888 -0.89491,-0.7077 -0.223984,-0.31288 -0.367901,-0.67006 -0.490231,-1.03202 -0.08134,-0.29651 -0.146354,-0.59751 -0.236724,-0.89151 -0.05686,-0.24712 -0.1891781,-0.46358 -0.3119238,-0.6821 -0.2373001,-0.36494 -0.4349269,-0.74848 -0.5853142,-1.15697 -0.1182357,-0.33523 -0.1996231,-0.68151 -0.295208,-1.0234 -0.1168988,-0.32445 -0.2307305,-0.65174 -0.3709943,-0.96723 -0.1391557,-0.25414 -0.286757,-0.50013 -0.4126399,-0.76131 -0.1582235,-0.39309 -0.299302,-0.79211 -0.4683369,-1.1809 -0.092078,-0.19242 -0.1581007,-0.39525 -0.2550884,-0.58524 -0.079894,-0.13908 -0.064374,-0.13266 -0.2213396,-0.21191 0,0 -0.6341782,-0.27382 -0.6341782,-0.27382 v 0 c -0.1996043,-0.0741 -0.081144,-0.0283 -0.026196,0.0916 0.1152607,0.19027 0.1849699,0.4011 0.2942365,0.59491 0.1849091,0.38107 0.3345651,0.77376 0.4659074,1.1764 0.097856,0.2736 0.2534616,0.51268 0.4022,0.76095 0.1538452,0.30767 0.2698515,0.6311 0.3815467,0.95614 0.1078801,0.34871 0.2063197,0.70013 0.3250964,1.04538 0.1579761,0.39931 0.3198363,0.79932 0.5574398,1.1596 0.1305382,0.22587 0.2633136,0.45012 0.367793,0.6896 0.1213514,0.31387 0.2727423,0.61607 0.3527047,0.94539 0.1284618,0.36973 0.2870711,0.72589 0.4917648,1.06057 0.23972,0.30382 0.541267,0.54192 0.879404,0.7303 z" />
    <text
       xml:space="preserve"
       style="font-size:5.64444px;text-align:center;text-anchor:middle;fill:url(#linearGradient135);fill-opacity:1;stroke:#000000;stroke-width:0.868;stroke-dasharray:none;stroke-opacity:1"
       x="94.549324"
       y="147.052"
       id="text112"><tspan
         sodipodi:role="line"
         style="font-weight:normal;font-size:5.64444px;fill:url(#linearGradient135);fill-opacity:1;stroke:none;stroke-width:0.868"
         x="94.549324"
         y="147.052"
         id="tspan113">Gap not</tspan><tspan
         sodipodi:role="line"
         style="font-weight:normal;font-size:5.64444px;fill:url(#linearGradient135);fill-opacity:1;stroke:none;stroke-width:0.868"
         x="94.549324"
         y="154.10756"
         id="tspan115">covered by</tspan><tspan
         sodipodi:role="line"
         style="font-weight:normal;font-size:5.64444px;fill:url(#linearGradient135);fill-opacity:1;stroke:none;stroke-width:0.868"
         x="94.549324"
         y="161.1631"
         id="tspan114">functional</tspan><tspan
         sodipodi:role="line"
         style="font-weight:normal;font-size:5.64444px;fill:url(#linearGradient135);fill-opacity:1;stroke:none;stroke-width:0.868"
         x="94.549324"
         y="168.21866"
         id="tspan116">models</tspan></text>
    <path
       style="fill:none;fill-opacity:1;stroke:#000000;stroke-width:0.794999;stroke-dasharray:none;stroke-opacity:1;marker-end:url(#Triangle)"
       d="m 187.54135,131.9241 h 23.58171"
       id="path120" />
    <path
       style="fill:none;fill-opacity:1;stroke:#000000;stroke-width:0.794999;stroke-dasharray:none;stroke-opacity:1;marker-end:url(#marker122)"
       d="M 118.13102,237.15193 236.26205,160.84507"
       id="path121" />
    <text
       xml:space="preserve"
       style="font-size:5.29167px;text-align:center;text-anchor:middle;fill:none;fill-opacity:1;stroke:#000000;stroke-width:0.794999;stroke-dasharray:none;stroke-opacity:1"
       x="204.00406"
       y="120.63218"
       id="text122"><tspan
         sodipodi:role="line"
         style="font-size:5.29167px;fill:#000000;fill-opacity:1;stroke:none;stroke-width:0.795"
         x="204.00406"
         y="120.63218"
         id="tspan123">Functional models are close to the user's tasks.</tspan><tspan
         sodipodi:role="line"
         style="font-size:5.29167px;fill:#000000;fill-opacity:1;stroke:none;stroke-width:0.795"
         x="204.00406"
         y="127.24677"
         id="tspan124">So it's quick to apply the model to tasks.</tspan></text>
    <path
       style="fill:#000000;fill-opacity:1;stroke:none;stroke-width:0.794999;stroke-dasharray:none;stroke-opacity:1"
       d="M 192.8806,135.48361 H 174.63814"
       id="path124" />
    <text
       xml:space="preserve"
       style="font-size:5.29167px;text-align:center;text-anchor:middle;fill:#000000;fill-opacity:1;stroke:none;stroke-width:0.794999;stroke-dasharray:none;stroke-opacity:1"
       x="44.636395"
       y="270.00241"
       id="text125"
       transform="rotate(-32.998889)"><tspan
         sodipodi:role="line"
         id="tspan125"
         style="font-size:5.29167px;stroke-width:0.795"
         x="44.636395"
         y="270.00241">Structural model is far from the user's tasks.</tspan><tspan
         sodipodi:role="line"
         style="font-size:5.29167px;stroke-width:0.795"
         x="44.636395"
         y="276.617"
         id="tspan126">So it takes thought to apply the model to tasks.</tspan></text>
    <text
       xml:space="preserve"
       style="font-size:5.29167px;text-align:center;text-anchor:middle;fill:#000000;fill-opacity:1;stroke:none;stroke-width:0.794999;stroke-dasharray:none;stroke-opacity:1"
       x="96.774002"
       y="202.00185"
       id="text127"><tspan
         sodipodi:role="line"
         id="tspan127"
         style="font-size:5.29167px;stroke-width:0.795"
         x="96.774002"
         y="202.00185">Everything can be</tspan><tspan
         sodipodi:role="line"
         style="font-size:5.29167px;stroke-width:0.795"
         x="96.774002"
         y="208.61644"
         id="tspan128">derived from the</tspan><tspan
         sodipodi:role="line"
         style="font-size:5.29167px;stroke-width:0.795"
         x="96.774002"
         y="215.23102"
         id="tspan130">structural model</tspan></text>
  </g>
</svg>
